<?xml version="1.0" encoding="UTF-8" standalone="no"?>
<!DOCTYPE svg PUBLIC "-//W3C//DTD SVG 1.1//EN"
 "http://www.w3.org/Graphics/SVG/1.1/DTD/svg11.dtd">
<!-- Generated by graphviz version 10.0.1 (20240210.2158)
 -->
<!-- Title: callgraph Pages: 1 -->
<svg width="672pt" height="2330pt"
 viewBox="0.00 0.00 672.06 2330.00" xmlns="http://www.w3.org/2000/svg" xmlns:xlink="http://www.w3.org/1999/xlink">
<g id="graph0" class="graph" transform="scale(1 1) rotate(0) translate(4 2326)">
<title>callgraph</title>
<polygon fill="#1e1e2e" stroke="none" points="-4,4 -4,-2326 668.06,-2326 668.06,4 -4,4"/>
<!-- main -->
<g id="node1" class="node">
<title>main</title>
<ellipse fill="#89b4fa" stroke="#1e1e2e" stroke-width="2" cx="26.78" cy="-1158" rx="22.78" ry="22.78"/>
<ellipse fill="none" stroke="#1e1e2e" stroke-width="2" cx="26.78" cy="-1158" rx="26.78" ry="26.78"/>
<text text-anchor="middle" x="26.78" y="-1155.08" font-family="Monaco" font-size="9.00" fill="#1e1e2e">main</text>
</g>
<!-- parse_args -->
<g id="node2" class="node">
<title>parse_args</title>
<path fill="#313244" stroke="#585b70" stroke-width="1.2" d="M215.69,-2170C215.69,-2170 174.94,-2170 174.94,-2170 168.94,-2170 162.94,-2164 162.94,-2158 162.94,-2158 162.94,-2146 162.94,-2146 162.94,-2140 168.94,-2134 174.94,-2134 174.94,-2134 215.69,-2134 215.69,-2134 221.69,-2134 227.69,-2140 227.69,-2146 227.69,-2146 227.69,-2158 227.69,-2158 227.69,-2164 221.69,-2170 215.69,-2170"/>
<text text-anchor="middle" x="195.31" y="-2149.07" font-family="Monaco" font-size="9.00" fill="#cdd6f4">parse_args</text>
</g>
<!-- main&#45;&gt;parse_args -->
<g id="edge1" class="edge">
<title>main&#45;&gt;parse_args</title>
<path fill="none" stroke="#585b70" d="M26.86,-1185.55C28.68,-1818.53 30.84,-1842.43 180.26,-2123.7"/>
<polygon fill="#585b70" stroke="#585b70" points="177.14,-2125.3 184.92,-2132.48 183.32,-2122.01 177.14,-2125.3"/>
</g>
<!-- log_init -->
<g id="node7" class="node">
<title>log_init</title>
<path fill="#313244" stroke="#585b70" stroke-width="1.2" d="M210.31,-1980C210.31,-1980 180.31,-1980 180.31,-1980 174.31,-1980 168.31,-1974 168.31,-1968 168.31,-1968 168.31,-1956 168.31,-1956 168.31,-1950 174.31,-1944 180.31,-1944 180.31,-1944 210.31,-1944 210.31,-1944 216.31,-1944 222.31,-1950 222.31,-1956 222.31,-1956 222.31,-1968 222.31,-1968 222.31,-1974 216.31,-1980 210.31,-1980"/>
<text text-anchor="middle" x="195.31" y="-1959.08" font-family="Monaco" font-size="9.00" fill="#cdd6f4">log_init</text>
</g>
<!-- main&#45;&gt;log_init -->
<g id="edge6" class="edge">
<title>main&#45;&gt;log_init</title>
<path fill="none" stroke="#585b70" d="M27.02,-1185.5C31.32,-1684.23 34.03,-1707.08 177.74,-1934.27"/>
<polygon fill="#585b70" stroke="#585b70" points="174.68,-1935.99 182.98,-1942.56 180.59,-1932.24 174.68,-1935.99"/>
</g>
<!-- log_set_verbose -->
<g id="node8" class="node">
<title>log_set_verbose</title>
<path fill="#313244" stroke="#585b70" stroke-width="1.2" d="M226.94,-1904C226.94,-1904 163.69,-1904 163.69,-1904 157.69,-1904 151.69,-1898 151.69,-1892 151.69,-1892 151.69,-1880 151.69,-1880 151.69,-1874 157.69,-1868 163.69,-1868 163.69,-1868 226.94,-1868 226.94,-1868 232.94,-1868 238.94,-1874 238.94,-1880 238.94,-1880 238.94,-1892 238.94,-1892 238.94,-1898 232.94,-1904 226.94,-1904"/>
<text text-anchor="middle" x="195.31" y="-1883.08" font-family="Monaco" font-size="9.00" fill="#cdd6f4">log_set_verbose</text>
</g>
<!-- main&#45;&gt;log_set_verbose -->
<g id="edge7" class="edge">
<title>main&#45;&gt;log_set_verbose</title>
<path fill="none" stroke="#585b70" d="M27.13,-1185.55C32.83,-1630.48 35.85,-1652.83 176.46,-1858.49"/>
<polygon fill="#585b70" stroke="#585b70" points="173.43,-1860.26 181.96,-1866.54 179.2,-1856.31 173.43,-1860.26"/>
</g>
<!-- log_info -->
<g id="node9" class="node">
<title>log_info</title>
<path fill="#313244" stroke="#585b70" stroke-width="1.2" d="M210.31,-1828C210.31,-1828 180.31,-1828 180.31,-1828 174.31,-1828 168.31,-1822 168.31,-1816 168.31,-1816 168.31,-1804 168.31,-1804 168.31,-1798 174.31,-1792 180.31,-1792 180.31,-1792 210.31,-1792 210.31,-1792 216.31,-1792 222.31,-1798 222.31,-1804 222.31,-1804 222.31,-1816 222.31,-1816 222.31,-1822 216.31,-1828 210.31,-1828"/>
<text text-anchor="middle" x="195.31" y="-1807.08" font-family="Monaco" font-size="9.00" fill="#cdd6f4">log_info</text>
</g>
<!-- main&#45;&gt;log_info -->
<g id="edge8" class="edge">
<title>main&#45;&gt;log_info</title>
<path fill="none" stroke="#585b70" d="M27.3,-1185.58C34.72,-1576.65 38.12,-1598.53 174.87,-1782.57"/>
<polygon fill="#585b70" stroke="#585b70" points="172.02,-1784.6 180.79,-1790.53 177.63,-1780.42 172.02,-1784.6"/>
</g>
<!-- conf_dump -->
<g id="node11" class="node">
<title>conf_dump</title>
<path fill="#313244" stroke="#585b70" stroke-width="1.2" d="M216.81,-1290C216.81,-1290 173.81,-1290 173.81,-1290 167.81,-1290 161.81,-1284 161.81,-1278 161.81,-1278 161.81,-1266 161.81,-1266 161.81,-1260 167.81,-1254 173.81,-1254 173.81,-1254 216.81,-1254 216.81,-1254 222.81,-1254 228.81,-1260 228.81,-1266 228.81,-1266 228.81,-1278 228.81,-1278 228.81,-1284 222.81,-1290 216.81,-1290"/>
<text text-anchor="middle" x="195.31" y="-1269.08" font-family="Monaco" font-size="9.00" fill="#cdd6f4">conf_dump</text>
</g>
<!-- main&#45;&gt;conf_dump -->
<g id="edge10" class="edge">
<title>main&#45;&gt;conf_dump</title>
<path fill="none" stroke="#585b70" d="M42.21,-1180.7C68.63,-1218.39 82.66,-1228.11 150.88,-1254.88"/>
<polygon fill="#585b70" stroke="#585b70" points="149.35,-1258.04 159.94,-1258.41 151.89,-1251.52 149.35,-1258.04"/>
</g>
<!-- template_cache_init -->
<g id="node12" class="node">
<title>template_cache_init</title>
<path fill="#313244" stroke="#585b70" stroke-width="1.2" d="M236.69,-1214C236.69,-1214 153.94,-1214 153.94,-1214 147.94,-1214 141.94,-1208 141.94,-1202 141.94,-1202 141.94,-1190 141.94,-1190 141.94,-1184 147.94,-1178 153.94,-1178 153.94,-1178 236.69,-1178 236.69,-1178 242.69,-1178 248.69,-1184 248.69,-1190 248.69,-1190 248.69,-1202 248.69,-1202 248.69,-1208 242.69,-1214 236.69,-1214"/>
<text text-anchor="middle" x="195.31" y="-1193.08" font-family="Monaco" font-size="9.00" fill="#cdd6f4">template_cache_init</text>
</g>
<!-- main&#45;&gt;template_cache_init -->
<g id="edge11" class="edge">
<title>main&#45;&gt;template_cache_init</title>
<path fill="none" stroke="#585b70" d="M52.38,-1168.76C73.13,-1176.9 88.86,-1180.59 130.47,-1186.81"/>
<polygon fill="#585b70" stroke="#585b70" points="129.72,-1190.24 140.13,-1188.23 130.74,-1183.31 129.72,-1190.24"/>
</g>
<!-- log_error -->
<g id="node14" class="node">
<title>log_error</title>
<path fill="#313244" stroke="#585b70" stroke-width="1.2" d="M459.19,-1936C459.19,-1936 427.44,-1936 427.44,-1936 421.44,-1936 415.44,-1930 415.44,-1924 415.44,-1924 415.44,-1912 415.44,-1912 415.44,-1906 421.44,-1900 427.44,-1900 427.44,-1900 459.19,-1900 459.19,-1900 465.19,-1900 471.19,-1906 471.19,-1912 471.19,-1912 471.19,-1924 471.19,-1924 471.19,-1930 465.19,-1936 459.19,-1936"/>
<text text-anchor="middle" x="443.31" y="-1915.08" font-family="Monaco" font-size="9.00" fill="#cdd6f4">log_error</text>
</g>
<!-- main&#45;&gt;log_error -->
<g id="edge13" class="edge">
<title>main&#45;&gt;log_error</title>
<path fill="none" stroke="#585b70" d="M34.75,-1184.45C185.24,-1683.72 195.35,-1708.11 413.01,-1892.4"/>
<polygon fill="#585b70" stroke="#585b70" points="410.45,-1894.83 420.35,-1898.62 414.98,-1889.49 410.45,-1894.83"/>
</g>
<!-- init_routes -->
<g id="node15" class="node">
<title>init_routes</title>
<path fill="#313244" stroke="#585b70" stroke-width="1.2" d="M214.94,-1138C214.94,-1138 175.69,-1138 175.69,-1138 169.69,-1138 163.69,-1132 163.69,-1126 163.69,-1126 163.69,-1114 163.69,-1114 163.69,-1108 169.69,-1102 175.69,-1102 175.69,-1102 214.94,-1102 214.94,-1102 220.94,-1102 226.94,-1108 226.94,-1114 226.94,-1114 226.94,-1126 226.94,-1126 226.94,-1132 220.94,-1138 214.94,-1138"/>
<text text-anchor="middle" x="195.31" y="-1117.08" font-family="Monaco" font-size="9.00" fill="#cdd6f4">init_routes</text>
</g>
<!-- main&#45;&gt;init_routes -->
<g id="edge15" class="edge">
<title>main&#45;&gt;init_routes</title>
<path fill="none" stroke="#585b70" d="M51.99,-1146.97C76.3,-1137.03 93.45,-1133.62 152.44,-1125.67"/>
<polygon fill="#585b70" stroke="#585b70" points="152.58,-1129.18 162.03,-1124.39 151.66,-1122.24 152.58,-1129.18"/>
</g>
<!-- handle_signal -->
<g id="node24" class="node">
<title>handle_signal</title>
<path fill="#313244" stroke="#585b70" stroke-width="1.2" d="M222.06,-910C222.06,-910 168.56,-910 168.56,-910 162.56,-910 156.56,-904 156.56,-898 156.56,-898 156.56,-886 156.56,-886 156.56,-880 162.56,-874 168.56,-874 168.56,-874 222.06,-874 222.06,-874 228.06,-874 234.06,-880 234.06,-886 234.06,-886 234.06,-898 234.06,-898 234.06,-904 228.06,-910 222.06,-910"/>
<text text-anchor="middle" x="195.31" y="-889.08" font-family="Monaco" font-size="9.00" fill="#cdd6f4">handle_signal</text>
</g>
<!-- main&#45;&gt;handle_signal -->
<g id="edge24" class="edge">
<title>main&#45;&gt;handle_signal</title>
<path fill="none" stroke="#585b70" d="M31.8,-1130.91C55.35,-1005.11 63.74,-988.53 160.95,-917.02"/>
<polygon fill="#585b70" stroke="#585b70" points="162.78,-920.02 168.78,-911.29 158.64,-914.38 162.78,-920.02"/>
</g>
<!-- miniweb_apply_openbsd_security -->
<g id="node26" class="node">
<title>miniweb_apply_openbsd_security</title>
<path fill="#313244" stroke="#585b70" stroke-width="1.2" d="M267.06,-1670C267.06,-1670 123.56,-1670 123.56,-1670 117.56,-1670 111.56,-1664 111.56,-1658 111.56,-1658 111.56,-1646 111.56,-1646 111.56,-1640 117.56,-1634 123.56,-1634 123.56,-1634 267.06,-1634 267.06,-1634 273.06,-1634 279.06,-1640 279.06,-1646 279.06,-1646 279.06,-1658 279.06,-1658 279.06,-1664 273.06,-1670 267.06,-1670"/>
<text text-anchor="middle" x="195.31" y="-1649.08" font-family="Monaco" font-size="9.00" fill="#cdd6f4">miniweb_apply_openbsd_security</text>
</g>
<!-- main&#45;&gt;miniweb_apply_openbsd_security -->
<g id="edge26" class="edge">
<title>main&#45;&gt;miniweb_apply_openbsd_security</title>
<path fill="none" stroke="#585b70" d="M28,-1185.69C40.36,-1465.64 44.96,-1485.85 171.13,-1625.37"/>
<polygon fill="#585b70" stroke="#585b70" points="168.49,-1627.67 177.8,-1632.74 173.68,-1622.97 168.49,-1627.67"/>
</g>
<!-- miniweb_server_run -->
<g id="node31" class="node">
<title>miniweb_server_run</title>
<path fill="#313244" stroke="#585b70" stroke-width="1.2" d="M236.69,-644C236.69,-644 153.94,-644 153.94,-644 147.94,-644 141.94,-638 141.94,-632 141.94,-632 141.94,-620 141.94,-620 141.94,-614 147.94,-608 153.94,-608 153.94,-608 236.69,-608 236.69,-608 242.69,-608 248.69,-614 248.69,-620 248.69,-620 248.69,-632 248.69,-632 248.69,-638 242.69,-644 236.69,-644"/>
<text text-anchor="middle" x="195.31" y="-623.08" font-family="Monaco" font-size="9.00" fill="#cdd6f4">miniweb_server_run</text>
</g>
<!-- main&#45;&gt;miniweb_server_run -->
<g id="edge32" class="edge">
<title>main&#45;&gt;miniweb_server_run</title>
<path fill="none" stroke="#585b70" d="M27.84,-1130.37C39.64,-823.17 43.9,-802.37 172.11,-652.93"/>
<polygon fill="#585b70" stroke="#585b70" points="174.67,-655.33 178.53,-645.47 169.36,-650.77 174.67,-655.33"/>
</g>
<!-- man_module_cleanup -->
<g id="node39" class="node">
<title>man_module_cleanup</title>
<path fill="#313244" stroke="#585b70" stroke-width="1.2" d="M240.81,-568C240.81,-568 149.81,-568 149.81,-568 143.81,-568 137.81,-562 137.81,-556 137.81,-556 137.81,-544 137.81,-544 137.81,-538 143.81,-532 149.81,-532 149.81,-532 240.81,-532 240.81,-532 246.81,-532 252.81,-538 252.81,-544 252.81,-544 252.81,-556 252.81,-556 252.81,-562 246.81,-568 240.81,-568"/>
<text text-anchor="middle" x="195.31" y="-547.08" font-family="Monaco" font-size="9.00" fill="#cdd6f4">man_module_cleanup</text>
</g>
<!-- main&#45;&gt;man_module_cleanup -->
<g id="edge40" class="edge">
<title>main&#45;&gt;man_module_cleanup</title>
<path fill="none" stroke="#585b70" d="M27.5,-1130.37C36.93,-769.96 40.63,-748.25 173.79,-577.5"/>
<polygon fill="#585b70" stroke="#585b70" points="176.53,-579.69 179.92,-569.65 171.01,-575.38 176.53,-579.69"/>
</g>
<!-- networking_module_cleanup -->
<g id="node41" class="node">
<title>networking_module_cleanup</title>
<path fill="#313244" stroke="#585b70" stroke-width="1.2" d="M256.19,-492C256.19,-492 134.44,-492 134.44,-492 128.44,-492 122.44,-486 122.44,-480 122.44,-480 122.44,-468 122.44,-468 122.44,-462 128.44,-456 134.44,-456 134.44,-456 256.19,-456 256.19,-456 262.19,-456 268.19,-462 268.19,-468 268.19,-468 268.19,-480 268.19,-480 268.19,-486 262.19,-492 256.19,-492"/>
<text text-anchor="middle" x="195.31" y="-471.07" font-family="Monaco" font-size="9.00" fill="#cdd6f4">networking_module_cleanup</text>
</g>
<!-- main&#45;&gt;networking_module_cleanup -->
<g id="edge42" class="edge">
<title>main&#45;&gt;networking_module_cleanup</title>
<path fill="none" stroke="#585b70" d="M27.28,-1130.24C34.78,-716.31 38.05,-694 175.48,-501.68"/>
<polygon fill="#585b70" stroke="#585b70" points="178.27,-503.79 181.24,-493.62 172.58,-499.72 178.27,-503.79"/>
</g>
<!-- metrics_module_cleanup -->
<g id="node43" class="node">
<title>metrics_module_cleanup</title>
<path fill="#313244" stroke="#585b70" stroke-width="1.2" d="M247.56,-416C247.56,-416 143.06,-416 143.06,-416 137.06,-416 131.06,-410 131.06,-404 131.06,-404 131.06,-392 131.06,-392 131.06,-386 137.06,-380 143.06,-380 143.06,-380 247.56,-380 247.56,-380 253.56,-380 259.56,-386 259.56,-392 259.56,-392 259.56,-404 259.56,-404 259.56,-410 253.56,-416 247.56,-416"/>
<text text-anchor="middle" x="195.31" y="-395.07" font-family="Monaco" font-size="9.00" fill="#cdd6f4">metrics_module_cleanup</text>
</g>
<!-- main&#45;&gt;metrics_module_cleanup -->
<g id="edge44" class="edge">
<title>main&#45;&gt;metrics_module_cleanup</title>
<path fill="none" stroke="#585b70" d="M27.13,-1130.23C33.05,-662.39 35.97,-639.77 177.1,-425.57"/>
<polygon fill="#585b70" stroke="#585b70" points="179.85,-427.76 182.44,-417.49 174.01,-423.91 179.85,-427.76"/>
</g>
<!-- packages_cache_cleanup -->
<g id="node45" class="node">
<title>packages_cache_cleanup</title>
<path fill="#313244" stroke="#585b70" stroke-width="1.2" d="M248.69,-1556C248.69,-1556 141.94,-1556 141.94,-1556 135.94,-1556 129.94,-1550 129.94,-1544 129.94,-1544 129.94,-1532 129.94,-1532 129.94,-1526 135.94,-1520 141.94,-1520 141.94,-1520 248.69,-1520 248.69,-1520 254.69,-1520 260.69,-1526 260.69,-1532 260.69,-1532 260.69,-1544 260.69,-1544 260.69,-1550 254.69,-1556 248.69,-1556"/>
<text text-anchor="middle" x="195.31" y="-1535.08" font-family="Monaco" font-size="9.00" fill="#cdd6f4">packages_cache_cleanup</text>
</g>
<!-- main&#45;&gt;packages_cache_cleanup -->
<g id="edge46" class="edge">
<title>main&#45;&gt;packages_cache_cleanup</title>
<path fill="none" stroke="#585b70" d="M29.13,-1185.47C46.48,-1386.52 52.5,-1405.23 167.04,-1511.84"/>
<polygon fill="#585b70" stroke="#585b70" points="164.65,-1514.41 174.36,-1518.65 169.42,-1509.28 164.65,-1514.41"/>
</g>
<!-- http_handler_globals_cleanup -->
<g id="node47" class="node">
<title>http_handler_globals_cleanup</title>
<path fill="#313244" stroke="#585b70" stroke-width="1.2" d="M258.81,-340C258.81,-340 131.81,-340 131.81,-340 125.81,-340 119.81,-334 119.81,-328 119.81,-328 119.81,-316 119.81,-316 119.81,-310 125.81,-304 131.81,-304 131.81,-304 258.81,-304 258.81,-304 264.81,-304 270.81,-310 270.81,-316 270.81,-316 270.81,-328 270.81,-328 270.81,-334 264.81,-340 258.81,-340"/>
<text text-anchor="middle" x="195.31" y="-319.07" font-family="Monaco" font-size="9.00" fill="#cdd6f4">http_handler_globals_cleanup</text>
</g>
<!-- main&#45;&gt;http_handler_globals_cleanup -->
<g id="edge49" class="edge">
<title>main&#45;&gt;http_handler_globals_cleanup</title>
<path fill="none" stroke="#585b70" d="M27.02,-1130.53C31.64,-608.83 34.25,-585.65 178.19,-349.98"/>
<polygon fill="#585b70" stroke="#585b70" points="181.01,-352.07 183.24,-341.71 175.04,-348.41 181.01,-352.07"/>
</g>
<!-- template_cache_cleanup -->
<g id="node48" class="node">
<title>template_cache_cleanup</title>
<path fill="#313244" stroke="#585b70" stroke-width="1.2" d="M247.56,-264C247.56,-264 143.06,-264 143.06,-264 137.06,-264 131.06,-258 131.06,-252 131.06,-252 131.06,-240 131.06,-240 131.06,-234 137.06,-228 143.06,-228 143.06,-228 247.56,-228 247.56,-228 253.56,-228 259.56,-234 259.56,-240 259.56,-240 259.56,-252 259.56,-252 259.56,-258 253.56,-264 247.56,-264"/>
<text text-anchor="middle" x="195.31" y="-243.07" font-family="Monaco" font-size="9.00" fill="#cdd6f4">template_cache_cleanup</text>
</g>
<!-- main&#45;&gt;template_cache_cleanup -->
<g id="edge50" class="edge">
<title>main&#45;&gt;template_cache_cleanup</title>
<path fill="none" stroke="#585b70" d="M26.95,-1130.57C30.49,-555.01 32.87,-531.54 179.35,-274.02"/>
<polygon fill="#585b70" stroke="#585b70" points="182.19,-276.1 184.09,-265.68 176.11,-272.64 182.19,-276.1"/>
</g>
<!-- log_close -->
<g id="node49" class="node">
<title>log_close</title>
<path fill="#313244" stroke="#585b70" stroke-width="1.2" d="M211.56,-188C211.56,-188 179.06,-188 179.06,-188 173.06,-188 167.06,-182 167.06,-176 167.06,-176 167.06,-164 167.06,-164 167.06,-158 173.06,-152 179.06,-152 179.06,-152 211.56,-152 211.56,-152 217.56,-152 223.56,-158 223.56,-164 223.56,-164 223.56,-176 223.56,-176 223.56,-182 217.56,-188 211.56,-188"/>
<text text-anchor="middle" x="195.31" y="-167.07" font-family="Monaco" font-size="9.00" fill="#cdd6f4">log_close</text>
</g>
<!-- main&#45;&gt;log_close -->
<g id="edge51" class="edge">
<title>main&#45;&gt;log_close</title>
<path fill="none" stroke="#585b70" d="M26.89,-1130.6C29.55,-501.56 31.73,-477.51 180.12,-198.52"/>
<polygon fill="#585b70" stroke="#585b70" points="183.14,-200.3 184.75,-189.82 176.96,-197.01 183.14,-200.3"/>
</g>
<!-- usage -->
<g id="node3" class="node">
<title>usage</title>
<path fill="#313244" stroke="#585b70" stroke-width="1.2" d="M458.31,-2322C458.31,-2322 428.31,-2322 428.31,-2322 422.31,-2322 416.31,-2316 416.31,-2310 416.31,-2310 416.31,-2298 416.31,-2298 416.31,-2292 422.31,-2286 428.31,-2286 428.31,-2286 458.31,-2286 458.31,-2286 464.31,-2286 470.31,-2292 470.31,-2298 470.31,-2298 470.31,-2310 470.31,-2310 470.31,-2316 464.31,-2322 458.31,-2322"/>
<text text-anchor="middle" x="443.31" y="-2301.07" font-family="Monaco" font-size="9.00" fill="#cdd6f4">usage</text>
</g>
<!-- parse_args&#45;&gt;usage -->
<g id="edge2" class="edge">
<title>parse_args&#45;&gt;usage</title>
<path fill="none" stroke="#585b70" d="M212.19,-2170.36C305.94,-2272.13 321.71,-2285.13 404.65,-2298.29"/>
<polygon fill="#585b70" stroke="#585b70" points="404.05,-2301.74 414.46,-2299.8 405.11,-2294.82 404.05,-2301.74"/>
</g>
<!-- conf_defaults -->
<g id="node4" class="node">
<title>conf_defaults</title>
<path fill="#313244" stroke="#585b70" stroke-width="1.2" d="M469.31,-2246C469.31,-2246 417.31,-2246 417.31,-2246 411.31,-2246 405.31,-2240 405.31,-2234 405.31,-2234 405.31,-2222 405.31,-2222 405.31,-2216 411.31,-2210 417.31,-2210 417.31,-2210 469.31,-2210 469.31,-2210 475.31,-2210 481.31,-2216 481.31,-2222 481.31,-2222 481.31,-2234 481.31,-2234 481.31,-2240 475.31,-2246 469.31,-2246"/>
<text text-anchor="middle" x="443.31" y="-2225.07" font-family="Monaco" font-size="9.00" fill="#cdd6f4">conf_defaults</text>
</g>
<!-- parse_args&#45;&gt;conf_defaults -->
<g id="edge3" class="edge">
<title>parse_args&#45;&gt;conf_defaults</title>
<path fill="none" stroke="#585b70" d="M220.53,-2170.33C302.86,-2229.88 322.46,-2239.16 393.53,-2233.16"/>
<polygon fill="#585b70" stroke="#585b70" points="393.75,-2236.65 403.39,-2232.26 393.11,-2229.68 393.75,-2236.65"/>
</g>
<!-- conf_load -->
<g id="node5" class="node">
<title>conf_load</title>
<path fill="#313244" stroke="#585b70" stroke-width="1.2" d="M460.69,-2170C460.69,-2170 425.94,-2170 425.94,-2170 419.94,-2170 413.94,-2164 413.94,-2158 413.94,-2158 413.94,-2146 413.94,-2146 413.94,-2140 419.94,-2134 425.94,-2134 425.94,-2134 460.69,-2134 460.69,-2134 466.69,-2134 472.69,-2140 472.69,-2146 472.69,-2146 472.69,-2158 472.69,-2158 472.69,-2164 466.69,-2170 460.69,-2170"/>
<text text-anchor="middle" x="443.31" y="-2149.07" font-family="Monaco" font-size="9.00" fill="#cdd6f4">conf_load</text>
</g>
<!-- parse_args&#45;&gt;conf_load -->
<g id="edge4" class="edge">
<title>parse_args&#45;&gt;conf_load</title>
<path fill="none" stroke="#585b70" d="M228.15,-2165.11C307.52,-2196.28 326.43,-2197.2 402.98,-2167.87"/>
<polygon fill="#585b70" stroke="#585b70" points="404.18,-2171.16 412.24,-2164.29 401.65,-2164.63 404.18,-2171.16"/>
</g>
<!-- conf_apply_cli -->
<g id="node6" class="node">
<title>conf_apply_cli</title>
<path fill="#313244" stroke="#585b70" stroke-width="1.2" d="M470.81,-2094C470.81,-2094 415.81,-2094 415.81,-2094 409.81,-2094 403.81,-2088 403.81,-2082 403.81,-2082 403.81,-2070 403.81,-2070 403.81,-2064 409.81,-2058 415.81,-2058 415.81,-2058 470.81,-2058 470.81,-2058 476.81,-2058 482.81,-2064 482.81,-2070 482.81,-2070 482.81,-2082 482.81,-2082 482.81,-2088 476.81,-2094 470.81,-2094"/>
<text text-anchor="middle" x="443.31" y="-2073.07" font-family="Monaco" font-size="9.00" fill="#cdd6f4">conf_apply_cli</text>
</g>
<!-- parse_args&#45;&gt;conf_apply_cli -->
<g id="edge5" class="edge">
<title>parse_args&#45;&gt;conf_apply_cli</title>
<path fill="none" stroke="#585b70" d="M228.14,-2155.6C309.42,-2163.95 327.27,-2158.67 408.69,-2100.84"/>
<polygon fill="#585b70" stroke="#585b70" points="410.51,-2103.84 416.62,-2095.19 406.45,-2098.14 410.51,-2103.84"/>
</g>
<!-- log_write -->
<g id="node10" class="node">
<title>log_write</title>
<path fill="#313244" stroke="#585b70" stroke-width="1.2" d="M652.06,-1975C652.06,-1975 619.56,-1975 619.56,-1975 613.56,-1975 607.56,-1969 607.56,-1963 607.56,-1963 607.56,-1951 607.56,-1951 607.56,-1945 613.56,-1939 619.56,-1939 619.56,-1939 652.06,-1939 652.06,-1939 658.06,-1939 664.06,-1945 664.06,-1951 664.06,-1951 664.06,-1963 664.06,-1963 664.06,-1969 658.06,-1975 652.06,-1975"/>
<text text-anchor="middle" x="635.81" y="-1954.08" font-family="Monaco" font-size="9.00" fill="#cdd6f4">log_write</text>
</g>
<!-- log_info&#45;&gt;log_write -->
<g id="edge9" class="edge">
<title>log_info&#45;&gt;log_write</title>
<path fill="none" stroke="#585b70" d="M221.03,-1828.45C412.11,-1965.39 432.25,-1974.41 596.09,-1960.5"/>
<polygon fill="#585b70" stroke="#585b70" points="595.93,-1964.03 605.59,-1959.68 595.33,-1957.05 595.93,-1964.03"/>
</g>
<!-- template_cache_reload_locked -->
<g id="node13" class="node">
<title>template_cache_reload_locked</title>
<path fill="#313244" stroke="#585b70" stroke-width="1.2" d="M508.31,-1480C508.31,-1480 378.31,-1480 378.31,-1480 372.31,-1480 366.31,-1474 366.31,-1468 366.31,-1468 366.31,-1456 366.31,-1456 366.31,-1450 372.31,-1444 378.31,-1444 378.31,-1444 508.31,-1444 508.31,-1444 514.31,-1444 520.31,-1450 520.31,-1456 520.31,-1456 520.31,-1468 520.31,-1468 520.31,-1474 514.31,-1480 508.31,-1480"/>
<text text-anchor="middle" x="443.31" y="-1459.08" font-family="Monaco" font-size="9.00" fill="#cdd6f4">template_cache_reload_locked</text>
</g>
<!-- template_cache_init&#45;&gt;template_cache_reload_locked -->
<g id="edge12" class="edge">
<title>template_cache_init&#45;&gt;template_cache_reload_locked</title>
<path fill="none" stroke="#585b70" d="M205.92,-1214.39C297.76,-1373.54 314.31,-1398.69 394.34,-1438.67"/>
<polygon fill="#585b70" stroke="#585b70" points="392.55,-1441.69 403.06,-1442.96 395.64,-1435.41 392.55,-1441.69"/>
</g>
<!-- log_error&#45;&gt;log_write -->
<g id="edge14" class="edge">
<title>log_error&#45;&gt;log_write</title>
<path fill="none" stroke="#585b70" d="M471.62,-1933.22C534.54,-1966.75 552.11,-1972.51 596.04,-1965.03"/>
<polygon fill="#585b70" stroke="#585b70" points="596.47,-1968.51 605.67,-1963.26 595.2,-1961.63 596.47,-1968.51"/>
</g>
<!-- url_registry_register -->
<g id="node16" class="node">
<title>url_registry_register</title>
<path fill="#313244" stroke="#585b70" stroke-width="1.2" d="M484.31,-1404C484.31,-1404 402.31,-1404 402.31,-1404 396.31,-1404 390.31,-1398 390.31,-1392 390.31,-1392 390.31,-1380 390.31,-1380 390.31,-1374 396.31,-1368 402.31,-1368 402.31,-1368 484.31,-1368 484.31,-1368 490.31,-1368 496.31,-1374 496.31,-1380 496.31,-1380 496.31,-1392 496.31,-1392 496.31,-1398 490.31,-1404 484.31,-1404"/>
<text text-anchor="middle" x="443.31" y="-1383.08" font-family="Monaco" font-size="9.00" fill="#cdd6f4">url_registry_register</text>
</g>
<!-- init_routes&#45;&gt;url_registry_register -->
<g id="edge16" class="edge">
<title>init_routes&#45;&gt;url_registry_register</title>
<path fill="none" stroke="#585b70" d="M205.52,-1138.35C294.09,-1297.47 310.1,-1322.34 393.2,-1362.75"/>
<polygon fill="#585b70" stroke="#585b70" points="391.5,-1365.82 402.03,-1366.98 394.52,-1359.5 391.5,-1365.82"/>
</g>
<!-- url_registry_register_prefix -->
<g id="node17" class="node">
<title>url_registry_register_prefix</title>
<path fill="#313244" stroke="#585b70" stroke-width="1.2" d="M499.69,-1328C499.69,-1328 386.94,-1328 386.94,-1328 380.94,-1328 374.94,-1322 374.94,-1316 374.94,-1316 374.94,-1304 374.94,-1304 374.94,-1298 380.94,-1292 386.94,-1292 386.94,-1292 499.69,-1292 499.69,-1292 505.69,-1292 511.69,-1298 511.69,-1304 511.69,-1304 511.69,-1316 511.69,-1316 511.69,-1322 505.69,-1328 499.69,-1328"/>
<text text-anchor="middle" x="443.31" y="-1307.08" font-family="Monaco" font-size="9.00" fill="#cdd6f4">url_registry_register_prefix</text>
</g>
<!-- init_routes&#45;&gt;url_registry_register_prefix -->
<g id="edge17" class="edge">
<title>init_routes&#45;&gt;url_registry_register_prefix</title>
<path fill="none" stroke="#585b70" d="M208.27,-1138.4C280.82,-1241.28 302.13,-1267.93 363.85,-1288.56"/>
<polygon fill="#585b70" stroke="#585b70" points="362.52,-1291.81 373.11,-1291.5 364.64,-1285.14 362.52,-1291.81"/>
</g>
<!-- views_module_attach_routes -->
<g id="node18" class="node">
<title>views_module_attach_routes</title>
<path fill="#313244" stroke="#585b70" stroke-width="1.2" d="M504.19,-1252C504.19,-1252 382.44,-1252 382.44,-1252 376.44,-1252 370.44,-1246 370.44,-1240 370.44,-1240 370.44,-1228 370.44,-1228 370.44,-1222 376.44,-1216 382.44,-1216 382.44,-1216 504.19,-1216 504.19,-1216 510.19,-1216 516.19,-1222 516.19,-1228 516.19,-1228 516.19,-1240 516.19,-1240 516.19,-1246 510.19,-1252 504.19,-1252"/>
<text text-anchor="middle" x="443.31" y="-1231.08" font-family="Monaco" font-size="9.00" fill="#cdd6f4">views_module_attach_routes</text>
</g>
<!-- init_routes&#45;&gt;views_module_attach_routes -->
<g id="edge18" class="edge">
<title>init_routes&#45;&gt;views_module_attach_routes</title>
<path fill="none" stroke="#585b70" d="M211.9,-1138.33C268.42,-1200.45 287.46,-1215.71 358.79,-1225.37"/>
<polygon fill="#585b70" stroke="#585b70" points="358.34,-1228.84 368.7,-1226.62 359.22,-1221.89 358.34,-1228.84"/>
</g>
<!-- metrics_module_attach_routes -->
<g id="node19" class="node">
<title>metrics_module_attach_routes</title>
<path fill="#313244" stroke="#585b70" stroke-width="1.2" d="M508.69,-1176C508.69,-1176 377.94,-1176 377.94,-1176 371.94,-1176 365.94,-1170 365.94,-1164 365.94,-1164 365.94,-1152 365.94,-1152 365.94,-1146 371.94,-1140 377.94,-1140 377.94,-1140 508.69,-1140 508.69,-1140 514.69,-1140 520.69,-1146 520.69,-1152 520.69,-1152 520.69,-1164 520.69,-1164 520.69,-1170 514.69,-1176 508.69,-1176"/>
<text text-anchor="middle" x="443.31" y="-1155.08" font-family="Monaco" font-size="9.00" fill="#cdd6f4">metrics_module_attach_routes</text>
</g>
<!-- init_routes&#45;&gt;metrics_module_attach_routes -->
<g id="edge19" class="edge">
<title>init_routes&#45;&gt;metrics_module_attach_routes</title>
<path fill="none" stroke="#585b70" d="M227.32,-1112.26C285.32,-1099 305.81,-1101.57 388.52,-1135.24"/>
<polygon fill="#585b70" stroke="#585b70" points="386.95,-1138.38 397.53,-1138.93 389.6,-1131.9 386.95,-1138.38"/>
</g>
<!-- networking_module_attach_routes -->
<g id="node20" class="node">
<title>networking_module_attach_routes</title>
<path fill="#313244" stroke="#585b70" stroke-width="1.2" d="M517.31,-1100C517.31,-1100 369.31,-1100 369.31,-1100 363.31,-1100 357.31,-1094 357.31,-1088 357.31,-1088 357.31,-1076 357.31,-1076 357.31,-1070 363.31,-1064 369.31,-1064 369.31,-1064 517.31,-1064 517.31,-1064 523.31,-1064 529.31,-1070 529.31,-1076 529.31,-1076 529.31,-1088 529.31,-1088 529.31,-1094 523.31,-1100 517.31,-1100"/>
<text text-anchor="middle" x="443.31" y="-1079.08" font-family="Monaco" font-size="9.00" fill="#cdd6f4">networking_module_attach_routes</text>
</g>
<!-- init_routes&#45;&gt;networking_module_attach_routes -->
<g id="edge20" class="edge">
<title>init_routes&#45;&gt;networking_module_attach_routes</title>
<path fill="none" stroke="#585b70" d="M226.12,-1101.64C279.62,-1070.2 303.97,-1059.85 345.75,-1063.45"/>
<polygon fill="#585b70" stroke="#585b70" points="345.26,-1066.92 355.58,-1064.54 346.02,-1059.96 345.26,-1066.92"/>
</g>
<!-- man_module_attach_routes -->
<g id="node21" class="node">
<title>man_module_attach_routes</title>
<path fill="#313244" stroke="#585b70" stroke-width="1.2" d="M501.94,-1024C501.94,-1024 384.69,-1024 384.69,-1024 378.69,-1024 372.69,-1018 372.69,-1012 372.69,-1012 372.69,-1000 372.69,-1000 372.69,-994 378.69,-988 384.69,-988 384.69,-988 501.94,-988 501.94,-988 507.94,-988 513.94,-994 513.94,-1000 513.94,-1000 513.94,-1012 513.94,-1012 513.94,-1018 507.94,-1024 501.94,-1024"/>
<text text-anchor="middle" x="443.31" y="-1003.08" font-family="Monaco" font-size="9.00" fill="#cdd6f4">man_module_attach_routes</text>
</g>
<!-- init_routes&#45;&gt;man_module_attach_routes -->
<g id="edge21" class="edge">
<title>init_routes&#45;&gt;man_module_attach_routes</title>
<path fill="none" stroke="#585b70" d="M214.72,-1101.59C284.75,-1035.33 308.43,-1016.34 361.23,-1009.9"/>
<polygon fill="#585b70" stroke="#585b70" points="361.49,-1013.4 371.08,-1008.9 360.77,-1006.43 361.49,-1013.4"/>
</g>
<!-- packages_module_attach_routes -->
<g id="node22" class="node">
<title>packages_module_attach_routes</title>
<path fill="#313244" stroke="#585b70" stroke-width="1.2" d="M513.19,-948C513.19,-948 373.44,-948 373.44,-948 367.44,-948 361.44,-942 361.44,-936 361.44,-936 361.44,-924 361.44,-924 361.44,-918 367.44,-912 373.44,-912 373.44,-912 513.19,-912 513.19,-912 519.19,-912 525.19,-918 525.19,-924 525.19,-924 525.19,-936 525.19,-936 525.19,-942 519.19,-948 513.19,-948"/>
<text text-anchor="middle" x="443.31" y="-927.08" font-family="Monaco" font-size="9.00" fill="#cdd6f4">packages_module_attach_routes</text>
</g>
<!-- init_routes&#45;&gt;packages_module_attach_routes -->
<g id="edge22" class="edge">
<title>init_routes&#45;&gt;packages_module_attach_routes</title>
<path fill="none" stroke="#585b70" d="M208.95,-1101.86C285.61,-1000.05 308.84,-972.07 364.62,-952.05"/>
<polygon fill="#585b70" stroke="#585b70" points="365.66,-955.39 374.01,-948.87 363.41,-948.76 365.66,-955.39"/>
</g>
<!-- miniweb_module_attach_enabled -->
<g id="node23" class="node">
<title>miniweb_module_attach_enabled</title>
<path fill="#313244" stroke="#585b70" stroke-width="1.2" d="M514.69,-872C514.69,-872 371.94,-872 371.94,-872 365.94,-872 359.94,-866 359.94,-860 359.94,-860 359.94,-848 359.94,-848 359.94,-842 365.94,-836 371.94,-836 371.94,-836 514.69,-836 514.69,-836 520.69,-836 526.69,-842 526.69,-848 526.69,-848 526.69,-860 526.69,-860 526.69,-866 520.69,-872 514.69,-872"/>
<text text-anchor="middle" x="443.31" y="-851.08" font-family="Monaco" font-size="9.00" fill="#cdd6f4">miniweb_module_attach_enabled</text>
</g>
<!-- init_routes&#45;&gt;miniweb_module_attach_enabled -->
<g id="edge23" class="edge">
<title>init_routes&#45;&gt;miniweb_module_attach_enabled</title>
<path fill="none" stroke="#585b70" d="M205.93,-1101.61C297.92,-942.44 314.49,-917.3 394.41,-877.32"/>
<polygon fill="#585b70" stroke="#585b70" points="395.7,-880.59 403.12,-873.03 392.6,-874.31 395.7,-880.59"/>
</g>
<!-- miniweb_server_stop -->
<g id="node25" class="node">
<title>miniweb_server_stop</title>
<path fill="#313244" stroke="#585b70" stroke-width="1.2" d="M486.56,-796C486.56,-796 400.06,-796 400.06,-796 394.06,-796 388.06,-790 388.06,-784 388.06,-784 388.06,-772 388.06,-772 388.06,-766 394.06,-760 400.06,-760 400.06,-760 486.56,-760 486.56,-760 492.56,-760 498.56,-766 498.56,-772 498.56,-772 498.56,-784 498.56,-784 498.56,-790 492.56,-796 486.56,-796"/>
<text text-anchor="middle" x="443.31" y="-775.08" font-family="Monaco" font-size="9.00" fill="#cdd6f4">miniweb_server_stop</text>
</g>
<!-- handle_signal&#45;&gt;miniweb_server_stop -->
<g id="edge25" class="edge">
<title>handle_signal&#45;&gt;miniweb_server_stop</title>
<path fill="none" stroke="#585b70" d="M215.53,-873.52C294.15,-801.84 316.35,-785.28 376.64,-780.4"/>
<polygon fill="#585b70" stroke="#585b70" points="376.68,-783.91 386.42,-779.74 376.21,-776.92 376.68,-783.91"/>
</g>
<!-- miniweb_apply_openbsd_security&#45;&gt;log_error -->
<g id="edge30" class="edge">
<title>miniweb_apply_openbsd_security&#45;&gt;log_error</title>
<path fill="none" stroke="#585b70" d="M206.28,-1670.41C304.77,-1835.67 319.3,-1856.57 404.82,-1899.29"/>
<polygon fill="#585b70" stroke="#585b70" points="403.16,-1902.37 413.67,-1903.66 406.26,-1896.1 403.16,-1902.37"/>
</g>
<!-- unveil -->
<g id="node27" class="node">
<title>unveil</title>
<path fill="#313244" stroke="#585b70" stroke-width="1.2" d="M458.31,-1860C458.31,-1860 428.31,-1860 428.31,-1860 422.31,-1860 416.31,-1854 416.31,-1848 416.31,-1848 416.31,-1836 416.31,-1836 416.31,-1830 422.31,-1824 428.31,-1824 428.31,-1824 458.31,-1824 458.31,-1824 464.31,-1824 470.31,-1830 470.31,-1836 470.31,-1836 470.31,-1848 470.31,-1848 470.31,-1854 464.31,-1860 458.31,-1860"/>
<text text-anchor="middle" x="443.31" y="-1839.08" font-family="Monaco" font-size="9.00" fill="#cdd6f4">unveil</text>
</g>
<!-- miniweb_apply_openbsd_security&#45;&gt;unveil -->
<g id="edge27" class="edge">
<title>miniweb_apply_openbsd_security&#45;&gt;unveil</title>
<path fill="none" stroke="#585b70" d="M209.47,-1670.17C305.25,-1792.97 320.36,-1808.53 404.95,-1831.86"/>
<polygon fill="#585b70" stroke="#585b70" points="403.88,-1835.19 414.45,-1834.43 405.71,-1828.44 403.88,-1835.19"/>
</g>
<!-- pledge -->
<g id="node28" class="node">
<title>pledge</title>
<path fill="#313244" stroke="#585b70" stroke-width="1.2" d="M458.31,-1784C458.31,-1784 428.31,-1784 428.31,-1784 422.31,-1784 416.31,-1778 416.31,-1772 416.31,-1772 416.31,-1760 416.31,-1760 416.31,-1754 422.31,-1748 428.31,-1748 428.31,-1748 458.31,-1748 458.31,-1748 464.31,-1748 470.31,-1754 470.31,-1760 470.31,-1760 470.31,-1772 470.31,-1772 470.31,-1778 464.31,-1784 458.31,-1784"/>
<text text-anchor="middle" x="443.31" y="-1763.08" font-family="Monaco" font-size="9.00" fill="#cdd6f4">pledge</text>
</g>
<!-- miniweb_apply_openbsd_security&#45;&gt;pledge -->
<g id="edge28" class="edge">
<title>miniweb_apply_openbsd_security&#45;&gt;pledge</title>
<path fill="none" stroke="#585b70" d="M215.67,-1670.49C305.79,-1752.1 322.22,-1762.27 404.35,-1765.07"/>
<polygon fill="#585b70" stroke="#585b70" points="404.21,-1768.57 414.31,-1765.37 404.42,-1761.58 404.21,-1768.57"/>
</g>
<!-- log_errno -->
<g id="node29" class="node">
<title>log_errno</title>
<path fill="#313244" stroke="#585b70" stroke-width="1.2" d="M460.31,-1708C460.31,-1708 426.31,-1708 426.31,-1708 420.31,-1708 414.31,-1702 414.31,-1696 414.31,-1696 414.31,-1684 414.31,-1684 414.31,-1678 420.31,-1672 426.31,-1672 426.31,-1672 460.31,-1672 460.31,-1672 466.31,-1672 472.31,-1678 472.31,-1684 472.31,-1684 472.31,-1696 472.31,-1696 472.31,-1702 466.31,-1708 460.31,-1708"/>
<text text-anchor="middle" x="443.31" y="-1687.08" font-family="Monaco" font-size="9.00" fill="#cdd6f4">log_errno</text>
</g>
<!-- miniweb_apply_openbsd_security&#45;&gt;log_errno -->
<g id="edge29" class="edge">
<title>miniweb_apply_openbsd_security&#45;&gt;log_errno</title>
<path fill="none" stroke="#585b70" d="M228.29,-1670.48C307.12,-1714.13 326.01,-1717.88 403.07,-1699.84"/>
<polygon fill="#585b70" stroke="#585b70" points="403.42,-1703.35 412.34,-1697.63 401.8,-1696.54 403.42,-1703.35"/>
</g>
<!-- log_debug -->
<g id="node30" class="node">
<title>log_debug</title>
<path fill="#313244" stroke="#585b70" stroke-width="1.2" d="M462.94,-1632C462.94,-1632 423.69,-1632 423.69,-1632 417.69,-1632 411.69,-1626 411.69,-1620 411.69,-1620 411.69,-1608 411.69,-1608 411.69,-1602 417.69,-1596 423.69,-1596 423.69,-1596 462.94,-1596 462.94,-1596 468.94,-1596 474.94,-1602 474.94,-1608 474.94,-1608 474.94,-1620 474.94,-1620 474.94,-1626 468.94,-1632 462.94,-1632"/>
<text text-anchor="middle" x="443.31" y="-1611.08" font-family="Monaco" font-size="9.00" fill="#cdd6f4">log_debug</text>
</g>
<!-- miniweb_apply_openbsd_security&#45;&gt;log_debug -->
<g id="edge31" class="edge">
<title>miniweb_apply_openbsd_security&#45;&gt;log_debug</title>
<path fill="none" stroke="#585b70" d="M278.18,-1670.46C319.73,-1675.94 344.73,-1667.26 401.09,-1637.09"/>
<polygon fill="#585b70" stroke="#585b70" points="402.72,-1640.19 409.86,-1632.36 399.4,-1634.03 402.72,-1640.19"/>
</g>
<!-- miniweb_work_queue_init -->
<g id="node32" class="node">
<title>miniweb_work_queue_init</title>
<path fill="#313244" stroke="#585b70" stroke-width="1.2" d="M497.44,-720C497.44,-720 389.19,-720 389.19,-720 383.19,-720 377.19,-714 377.19,-708 377.19,-708 377.19,-696 377.19,-696 377.19,-690 383.19,-684 389.19,-684 389.19,-684 497.44,-684 497.44,-684 503.44,-684 509.44,-690 509.44,-696 509.44,-696 509.44,-708 509.44,-708 509.44,-714 503.44,-720 497.44,-720"/>
<text text-anchor="middle" x="443.31" y="-699.08" font-family="Monaco" font-size="9.00" fill="#cdd6f4">miniweb_work_queue_init</text>
</g>
<!-- miniweb_server_run&#45;&gt;miniweb_work_queue_init -->
<g id="edge33" class="edge">
<title>miniweb_server_run&#45;&gt;miniweb_work_queue_init</title>
<path fill="none" stroke="#585b70" d="M248.95,-620.47C312.63,-615.5 334.23,-624.69 408.28,-677"/>
<polygon fill="#585b70" stroke="#585b70" points="406.16,-679.78 416.34,-682.71 410.21,-674.07 406.16,-679.78"/>
</g>
<!-- miniweb_connection_pool_init -->
<g id="node33" class="node">
<title>miniweb_connection_pool_init</title>
<path fill="#313244" stroke="#585b70" stroke-width="1.2" d="M506.81,-644C506.81,-644 379.81,-644 379.81,-644 373.81,-644 367.81,-638 367.81,-632 367.81,-632 367.81,-620 367.81,-620 367.81,-614 373.81,-608 379.81,-608 379.81,-608 506.81,-608 506.81,-608 512.81,-608 518.81,-614 518.81,-620 518.81,-620 518.81,-632 518.81,-632 518.81,-638 512.81,-644 506.81,-644"/>
<text text-anchor="middle" x="443.31" y="-623.08" font-family="Monaco" font-size="9.00" fill="#cdd6f4">miniweb_connection_pool_init</text>
</g>
<!-- miniweb_server_run&#45;&gt;miniweb_connection_pool_init -->
<g id="edge34" class="edge">
<title>miniweb_server_run&#45;&gt;miniweb_connection_pool_init</title>
<path fill="none" stroke="#585b70" d="M241.89,-607.5C303.79,-583.93 326.71,-582.65 385.38,-603.67"/>
<polygon fill="#585b70" stroke="#585b70" points="383.93,-606.86 394.52,-607.02 386.34,-600.29 383.93,-606.86"/>
</g>
<!-- set_nonblock -->
<g id="node34" class="node">
<title>set_nonblock</title>
<path fill="#313244" stroke="#585b70" stroke-width="1.2" d="M468.94,-568C468.94,-568 417.69,-568 417.69,-568 411.69,-568 405.69,-562 405.69,-556 405.69,-556 405.69,-544 405.69,-544 405.69,-538 411.69,-532 417.69,-532 417.69,-532 468.94,-532 468.94,-532 474.94,-532 480.94,-538 480.94,-544 480.94,-544 480.94,-556 480.94,-556 480.94,-562 474.94,-568 468.94,-568"/>
<text text-anchor="middle" x="443.31" y="-547.08" font-family="Monaco" font-size="9.00" fill="#cdd6f4">set_nonblock</text>
</g>
<!-- miniweb_server_run&#45;&gt;set_nonblock -->
<g id="edge35" class="edge">
<title>miniweb_server_run&#45;&gt;set_nonblock</title>
<path fill="none" stroke="#585b70" d="M220.42,-607.67C302.77,-547.87 322.16,-538.77 394.25,-544.92"/>
<polygon fill="#585b70" stroke="#585b70" points="393.5,-548.37 403.77,-545.8 394.14,-541.4 393.5,-548.37"/>
</g>
<!-- kqueue -->
<g id="node35" class="node">
<title>kqueue</title>
<path fill="#313244" stroke="#585b70" stroke-width="1.2" d="M458.31,-492C458.31,-492 428.31,-492 428.31,-492 422.31,-492 416.31,-486 416.31,-480 416.31,-480 416.31,-468 416.31,-468 416.31,-462 422.31,-456 428.31,-456 428.31,-456 458.31,-456 458.31,-456 464.31,-456 470.31,-462 470.31,-468 470.31,-468 470.31,-480 470.31,-480 470.31,-486 464.31,-492 458.31,-492"/>
<text text-anchor="middle" x="443.31" y="-471.07" font-family="Monaco" font-size="9.00" fill="#cdd6f4">kqueue</text>
</g>
<!-- miniweb_server_run&#45;&gt;kqueue -->
<g id="edge36" class="edge">
<title>miniweb_server_run&#45;&gt;kqueue</title>
<path fill="none" stroke="#585b70" d="M212.12,-607.65C305.47,-505.87 321.22,-492.88 404.49,-479.71"/>
<polygon fill="#585b70" stroke="#585b70" points="405,-483.17 414.35,-478.2 403.94,-476.26 405,-483.17"/>
</g>
<!-- kevent -->
<g id="node36" class="node">
<title>kevent</title>
<path fill="#313244" stroke="#585b70" stroke-width="1.2" d="M458.31,-416C458.31,-416 428.31,-416 428.31,-416 422.31,-416 416.31,-410 416.31,-404 416.31,-404 416.31,-392 416.31,-392 416.31,-386 422.31,-380 428.31,-380 428.31,-380 458.31,-380 458.31,-380 464.31,-380 470.31,-386 470.31,-392 470.31,-392 470.31,-404 470.31,-404 470.31,-410 464.31,-416 458.31,-416"/>
<text text-anchor="middle" x="443.31" y="-395.07" font-family="Monaco" font-size="9.00" fill="#cdd6f4">kevent</text>
</g>
<!-- miniweb_server_run&#45;&gt;kevent -->
<g id="edge37" class="edge">
<title>miniweb_server_run&#45;&gt;kevent</title>
<path fill="none" stroke="#585b70" d="M207.81,-607.53C305.34,-463.49 319.98,-445.54 405.58,-412.23"/>
<polygon fill="#585b70" stroke="#585b70" points="406.6,-415.59 414.68,-408.74 404.09,-409.06 406.6,-415.59"/>
</g>
<!-- sweep_idle -->
<g id="node37" class="node">
<title>sweep_idle</title>
<path fill="#313244" stroke="#585b70" stroke-width="1.2" d="M463.69,-340C463.69,-340 422.94,-340 422.94,-340 416.94,-340 410.94,-334 410.94,-328 410.94,-328 410.94,-316 410.94,-316 410.94,-310 416.94,-304 422.94,-304 422.94,-304 463.69,-304 463.69,-304 469.69,-304 475.69,-310 475.69,-316 475.69,-316 475.69,-328 475.69,-328 475.69,-334 469.69,-340 463.69,-340"/>
<text text-anchor="middle" x="443.31" y="-319.07" font-family="Monaco" font-size="9.00" fill="#cdd6f4">sweep_idle</text>
</g>
<!-- miniweb_server_run&#45;&gt;sweep_idle -->
<g id="edge38" class="edge">
<title>miniweb_server_run&#45;&gt;sweep_idle</title>
<path fill="none" stroke="#585b70" d="M205.09,-607.61C303.78,-422.12 318.72,-397.34 402.51,-346.21"/>
<polygon fill="#585b70" stroke="#585b70" points="404.19,-349.29 410.94,-341.12 400.57,-343.29 404.19,-349.29"/>
</g>
<!-- miniweb_work_queue_broadcast_shutdown -->
<g id="node38" class="node">
<title>miniweb_work_queue_broadcast_shutdown</title>
<path fill="#313244" stroke="#585b70" stroke-width="1.2" d="M537.56,-264C537.56,-264 349.06,-264 349.06,-264 343.06,-264 337.06,-258 337.06,-252 337.06,-252 337.06,-240 337.06,-240 337.06,-234 343.06,-228 349.06,-228 349.06,-228 537.56,-228 537.56,-228 543.56,-228 549.56,-234 549.56,-240 549.56,-240 549.56,-252 549.56,-252 549.56,-258 543.56,-264 537.56,-264"/>
<text text-anchor="middle" x="443.31" y="-243.07" font-family="Monaco" font-size="9.00" fill="#cdd6f4">miniweb_work_queue_broadcast_shutdown</text>
</g>
<!-- miniweb_server_run&#45;&gt;miniweb_work_queue_broadcast_shutdown -->
<g id="edge39" class="edge">
<title>miniweb_server_run&#45;&gt;miniweb_work_queue_broadcast_shutdown</title>
<path fill="none" stroke="#585b70" d="M203.38,-607.5C306.84,-370.29 318.99,-345.83 411.18,-271.54"/>
<polygon fill="#585b70" stroke="#585b70" points="413.26,-274.36 418.88,-265.38 408.88,-268.9 413.26,-274.36"/>
</g>
<!-- man_render_cache_cleanup -->
<g id="node40" class="node">
<title>man_render_cache_cleanup</title>
<path fill="#313244" stroke="#585b70" stroke-width="1.2" d="M502.69,-188C502.69,-188 383.94,-188 383.94,-188 377.94,-188 371.94,-182 371.94,-176 371.94,-176 371.94,-164 371.94,-164 371.94,-158 377.94,-152 383.94,-152 383.94,-152 502.69,-152 502.69,-152 508.69,-152 514.69,-158 514.69,-164 514.69,-164 514.69,-176 514.69,-176 514.69,-182 508.69,-188 502.69,-188"/>
<text text-anchor="middle" x="443.31" y="-167.07" font-family="Monaco" font-size="9.00" fill="#cdd6f4">man_render_cache_cleanup</text>
</g>
<!-- man_module_cleanup&#45;&gt;man_render_cache_cleanup -->
<g id="edge41" class="edge">
<title>man_module_cleanup&#45;&gt;man_render_cache_cleanup</title>
<path fill="none" stroke="#585b70" d="M203.39,-531.5C306.98,-294.29 319.14,-269.82 411.22,-195.54"/>
<polygon fill="#585b70" stroke="#585b70" points="413.29,-198.37 418.9,-189.38 408.91,-192.91 413.29,-198.37"/>
</g>
<!-- pthread_mutex_destroy -->
<g id="node42" class="node">
<title>pthread_mutex_destroy</title>
<path fill="#313244" stroke="#585b70" stroke-width="1.2" d="M493.31,-112C493.31,-112 393.31,-112 393.31,-112 387.31,-112 381.31,-106 381.31,-100 381.31,-100 381.31,-88 381.31,-88 381.31,-82 387.31,-76 393.31,-76 393.31,-76 493.31,-76 493.31,-76 499.31,-76 505.31,-82 505.31,-88 505.31,-88 505.31,-100 505.31,-100 505.31,-106 499.31,-112 493.31,-112"/>
<text text-anchor="middle" x="443.31" y="-91.08" font-family="Monaco" font-size="9.00" fill="#cdd6f4">pthread_mutex_destroy</text>
</g>
<!-- networking_module_cleanup&#45;&gt;pthread_mutex_destroy -->
<g id="edge43" class="edge">
<title>networking_module_cleanup&#45;&gt;pthread_mutex_destroy</title>
<path fill="none" stroke="#585b70" d="M203.39,-455.5C307.09,-218.29 319.26,-193.82 411.25,-119.54"/>
<polygon fill="#585b70" stroke="#585b70" points="413.32,-122.37 418.93,-113.38 408.94,-116.91 413.32,-122.37"/>
</g>
<!-- ring_free -->
<g id="node44" class="node">
<title>ring_free</title>
<path fill="#313244" stroke="#585b70" stroke-width="1.2" d="M459.19,-36C459.19,-36 427.44,-36 427.44,-36 421.44,-36 415.44,-30 415.44,-24 415.44,-24 415.44,-12 415.44,-12 415.44,-6 421.44,0 427.44,0 427.44,0 459.19,0 459.19,0 465.19,0 471.19,-6 471.19,-12 471.19,-12 471.19,-24 471.19,-24 471.19,-30 465.19,-36 459.19,-36"/>
<text text-anchor="middle" x="443.31" y="-15.07" font-family="Monaco" font-size="9.00" fill="#cdd6f4">ring_free</text>
</g>
<!-- metrics_module_cleanup&#45;&gt;ring_free -->
<g id="edge45" class="edge">
<title>metrics_module_cleanup&#45;&gt;ring_free</title>
<path fill="none" stroke="#585b70" d="M203.4,-379.5C307.19,-142.28 319.36,-117.82 411.28,-43.54"/>
<polygon fill="#585b70" stroke="#585b70" points="413.35,-46.37 418.95,-37.38 408.96,-40.91 413.35,-46.37"/>
</g>
<!-- packages_cache_cleanup&#45;&gt;log_debug -->
<g id="edge47" class="edge">
<title>packages_cache_cleanup&#45;&gt;log_debug</title>
<path fill="none" stroke="#585b70" d="M220.33,-1556.33C304.57,-1617.7 322.74,-1625.66 399.96,-1618.55"/>
<polygon fill="#585b70" stroke="#585b70" points="400.14,-1622.05 409.76,-1617.6 399.46,-1615.08 400.14,-1622.05"/>
</g>
<!-- pkg_ring_free -->
<g id="node46" class="node">
<title>pkg_ring_free</title>
<path fill="#313244" stroke="#585b70" stroke-width="1.2" d="M470.06,-1556C470.06,-1556 416.56,-1556 416.56,-1556 410.56,-1556 404.56,-1550 404.56,-1544 404.56,-1544 404.56,-1532 404.56,-1532 404.56,-1526 410.56,-1520 416.56,-1520 416.56,-1520 470.06,-1520 470.06,-1520 476.06,-1520 482.06,-1526 482.06,-1532 482.06,-1532 482.06,-1544 482.06,-1544 482.06,-1550 476.06,-1556 470.06,-1556"/>
<text text-anchor="middle" x="443.31" y="-1535.08" font-family="Monaco" font-size="9.00" fill="#cdd6f4">pkg_ring_free</text>
</g>
<!-- packages_cache_cleanup&#45;&gt;pkg_ring_free -->
<g id="edge48" class="edge">
<title>packages_cache_cleanup&#45;&gt;pkg_ring_free</title>
<path fill="none" stroke="#585b70" d="M241.7,-1556.49C306.39,-1581.21 328.42,-1581.41 394.05,-1557.09"/>
<polygon fill="#585b70" stroke="#585b70" points="394.97,-1560.48 403.1,-1553.69 392.51,-1553.93 394.97,-1560.48"/>
</g>
</g>
</svg>
