<?xml version="1.0" encoding="UTF-8" standalone="no"?>
<!DOCTYPE svg PUBLIC "-//W3C//DTD SVG 1.1//EN"
 "http://www.w3.org/Graphics/SVG/1.1/DTD/svg11.dtd">
<!-- Generated by graphviz version 10.0.1 (20240210.2158)
 -->
<!-- Title: callgraph Pages: 1 -->
<svg width="4399pt" height="347pt"
 viewBox="0.00 0.00 4398.88 347.39" xmlns="http://www.w3.org/2000/svg" xmlns:xlink="http://www.w3.org/1999/xlink">
<g id="graph0" class="graph" transform="scale(1 1) rotate(0) translate(4 343.39)">
<title>callgraph</title>
<polygon fill="#1e1e2e" stroke="none" points="-4,4 -4,-343.39 4394.88,-343.39 4394.88,4 -4,4"/>
<!-- main -->
<g id="node1" class="node">
<title>main</title>
<ellipse fill="#89b4fa" stroke="#1e1e2e" stroke-width="2" cx="1930" cy="-308.78" rx="22.78" ry="22.78"/>
<ellipse fill="none" stroke="#1e1e2e" stroke-width="2" cx="1930" cy="-308.78" rx="26.78" ry="26.78"/>
<text text-anchor="middle" x="1930" y="-305.86" font-family="Monaco" font-size="9.00" fill="#1e1e2e">main</text>
</g>
<!-- parse_args -->
<g id="node2" class="node">
<title>parse_args</title>
<path fill="#313244" stroke="#585b70" stroke-width="1.2" d="M259.38,-224C259.38,-224 218.62,-224 218.62,-224 212.62,-224 206.62,-218 206.62,-212 206.62,-212 206.62,-200 206.62,-200 206.62,-194 212.62,-188 218.62,-188 218.62,-188 259.38,-188 259.38,-188 265.38,-188 271.38,-194 271.38,-200 271.38,-200 271.38,-212 271.38,-212 271.38,-218 265.38,-224 259.38,-224"/>
<text text-anchor="middle" x="239" y="-203.07" font-family="Monaco" font-size="9.00" fill="#cdd6f4">parse_args</text>
</g>
<!-- main&#45;&gt;parse_args -->
<g id="edge1" class="edge">
<title>main&#45;&gt;parse_args</title>
<path fill="none" stroke="#585b70" d="M1902.48,-308.21C781.48,-284.77 744.04,-283.5 283.17,-212.79"/>
<polygon fill="#585b70" stroke="#585b70" points="283.77,-209.34 273.35,-211.28 282.7,-216.26 283.77,-209.34"/>
</g>
<!-- log_init -->
<g id="node7" class="node">
<title>log_init</title>
<path fill="#313244" stroke="#585b70" stroke-width="1.2" d="M394,-224C394,-224 364,-224 364,-224 358,-224 352,-218 352,-212 352,-212 352,-200 352,-200 352,-194 358,-188 364,-188 364,-188 394,-188 394,-188 400,-188 406,-194 406,-200 406,-200 406,-212 406,-212 406,-218 400,-224 394,-224"/>
<text text-anchor="middle" x="379" y="-203.07" font-family="Monaco" font-size="9.00" fill="#cdd6f4">log_init</text>
</g>
<!-- main&#45;&gt;log_init -->
<g id="edge6" class="edge">
<title>main&#45;&gt;log_init</title>
<path fill="none" stroke="#585b70" d="M1902.42,-308.14C874.72,-284.18 841.81,-282.88 417.26,-212.36"/>
<polygon fill="#585b70" stroke="#585b70" points="418.12,-208.96 407.69,-210.77 416.98,-215.86 418.12,-208.96"/>
</g>
<!-- log_set_verbose -->
<g id="node8" class="node">
<title>log_set_verbose</title>
<path fill="#313244" stroke="#585b70" stroke-width="1.2" d="M521.62,-224C521.62,-224 458.38,-224 458.38,-224 452.38,-224 446.38,-218 446.38,-212 446.38,-212 446.38,-200 446.38,-200 446.38,-194 452.38,-188 458.38,-188 458.38,-188 521.62,-188 521.62,-188 527.62,-188 533.62,-194 533.62,-200 533.62,-200 533.62,-212 533.62,-212 533.62,-218 527.62,-224 521.62,-224"/>
<text text-anchor="middle" x="490" y="-203.07" font-family="Monaco" font-size="9.00" fill="#cdd6f4">log_set_verbose</text>
</g>
<!-- main&#45;&gt;log_set_verbose -->
<g id="edge7" class="edge">
<title>main&#45;&gt;log_set_verbose</title>
<path fill="none" stroke="#585b70" d="M1902.58,-308.08C966.3,-284.1 920.76,-282.39 545.18,-215.81"/>
<polygon fill="#585b70" stroke="#585b70" points="545.92,-212.39 535.46,-214.09 544.69,-219.28 545.92,-212.39"/>
</g>
<!-- log_info -->
<g id="node9" class="node">
<title>log_info</title>
<path fill="#313244" stroke="#585b70" stroke-width="1.2" d="M616,-224C616,-224 586,-224 586,-224 580,-224 574,-218 574,-212 574,-212 574,-200 574,-200 574,-194 580,-188 586,-188 586,-188 616,-188 616,-188 622,-188 628,-194 628,-200 628,-200 628,-212 628,-212 628,-218 622,-224 616,-224"/>
<text text-anchor="middle" x="601" y="-203.07" font-family="Monaco" font-size="9.00" fill="#cdd6f4">log_info</text>
</g>
<!-- main&#45;&gt;log_info -->
<g id="edge8" class="edge">
<title>main&#45;&gt;log_info</title>
<path fill="none" stroke="#585b70" d="M1902.35,-308C1030.45,-283.27 997.38,-281.73 639.65,-213.4"/>
<polygon fill="#585b70" stroke="#585b70" points="640.39,-209.97 629.91,-211.53 639.08,-216.85 640.39,-209.97"/>
</g>
<!-- conf_dump -->
<g id="node11" class="node">
<title>conf_dump</title>
<path fill="#313244" stroke="#585b70" stroke-width="1.2" d="M1762.5,-224C1762.5,-224 1719.5,-224 1719.5,-224 1713.5,-224 1707.5,-218 1707.5,-212 1707.5,-212 1707.5,-200 1707.5,-200 1707.5,-194 1713.5,-188 1719.5,-188 1719.5,-188 1762.5,-188 1762.5,-188 1768.5,-188 1774.5,-194 1774.5,-200 1774.5,-200 1774.5,-212 1774.5,-212 1774.5,-218 1768.5,-224 1762.5,-224"/>
<text text-anchor="middle" x="1741" y="-203.07" font-family="Monaco" font-size="9.00" fill="#cdd6f4">conf_dump</text>
</g>
<!-- main&#45;&gt;conf_dump -->
<g id="edge10" class="edge">
<title>main&#45;&gt;conf_dump</title>
<path fill="none" stroke="#585b70" d="M1903.56,-300.81C1813.8,-273.64 1794.98,-265.97 1764.46,-232.88"/>
<polygon fill="#585b70" stroke="#585b70" points="1767.15,-230.64 1757.87,-225.54 1761.95,-235.32 1767.15,-230.64"/>
</g>
<!-- template_cache_init -->
<g id="node12" class="node">
<title>template_cache_init</title>
<path fill="#313244" stroke="#585b70" stroke-width="1.2" d="M1909.38,-224C1909.38,-224 1826.62,-224 1826.62,-224 1820.62,-224 1814.62,-218 1814.62,-212 1814.62,-212 1814.62,-200 1814.62,-200 1814.62,-194 1820.62,-188 1826.62,-188 1826.62,-188 1909.38,-188 1909.38,-188 1915.38,-188 1921.38,-194 1921.38,-200 1921.38,-200 1921.38,-212 1921.38,-212 1921.38,-218 1915.38,-224 1909.38,-224"/>
<text text-anchor="middle" x="1868" y="-203.07" font-family="Monaco" font-size="9.00" fill="#cdd6f4">template_cache_init</text>
</g>
<!-- main&#45;&gt;template_cache_init -->
<g id="edge11" class="edge">
<title>main&#45;&gt;template_cache_init</title>
<path fill="none" stroke="#585b70" d="M1908.87,-291.2C1883.8,-269.79 1877.16,-260.29 1872.44,-235.35"/>
<polygon fill="#585b70" stroke="#585b70" points="1875.91,-234.87 1870.81,-225.58 1869.01,-236.02 1875.91,-234.87"/>
</g>
<!-- log_error -->
<g id="node14" class="node">
<title>log_error</title>
<path fill="#313244" stroke="#585b70" stroke-width="1.2" d="M553.88,-130C553.88,-130 522.12,-130 522.12,-130 516.12,-130 510.12,-124 510.12,-118 510.12,-118 510.12,-106 510.12,-106 510.12,-100 516.12,-94 522.12,-94 522.12,-94 553.88,-94 553.88,-94 559.88,-94 565.88,-100 565.88,-106 565.88,-106 565.88,-118 565.88,-118 565.88,-124 559.88,-130 553.88,-130"/>
<text text-anchor="middle" x="538" y="-109.08" font-family="Monaco" font-size="9.00" fill="#cdd6f4">log_error</text>
</g>
<!-- main&#45;&gt;log_error -->
<g id="edge13" class="edge">
<title>main&#45;&gt;log_error</title>
<path fill="none" stroke="#585b70" d="M1902.36,-306.33C984.12,-225.02 950.4,-221.39 577.11,-122.39"/>
<polygon fill="#585b70" stroke="#585b70" points="578.28,-119.07 567.72,-119.89 576.48,-125.84 578.28,-119.07"/>
</g>
<!-- init_routes -->
<g id="node15" class="node">
<title>init_routes</title>
<path fill="#313244" stroke="#585b70" stroke-width="1.2" d="M2012.62,-224C2012.62,-224 1973.38,-224 1973.38,-224 1967.38,-224 1961.38,-218 1961.38,-212 1961.38,-212 1961.38,-200 1961.38,-200 1961.38,-194 1967.38,-188 1973.38,-188 1973.38,-188 2012.62,-188 2012.62,-188 2018.62,-188 2024.62,-194 2024.62,-200 2024.62,-200 2024.62,-212 2024.62,-212 2024.62,-218 2018.62,-224 2012.62,-224"/>
<text text-anchor="middle" x="1993" y="-203.07" font-family="Monaco" font-size="9.00" fill="#cdd6f4">init_routes</text>
</g>
<!-- main&#45;&gt;init_routes -->
<g id="edge15" class="edge">
<title>main&#45;&gt;init_routes</title>
<path fill="none" stroke="#585b70" d="M1936.44,-281.83C1941.26,-266.63 1948.48,-256.23 1968.97,-232.88"/>
<polygon fill="#585b70" stroke="#585b70" points="1971.43,-235.38 1975.44,-225.58 1966.19,-230.74 1971.43,-235.38"/>
</g>
<!-- handle_signal -->
<g id="node24" class="node">
<title>handle_signal</title>
<path fill="#313244" stroke="#585b70" stroke-width="1.2" d="M2462.75,-224C2462.75,-224 2409.25,-224 2409.25,-224 2403.25,-224 2397.25,-218 2397.25,-212 2397.25,-212 2397.25,-200 2397.25,-200 2397.25,-194 2403.25,-188 2409.25,-188 2409.25,-188 2462.75,-188 2462.75,-188 2468.75,-188 2474.75,-194 2474.75,-200 2474.75,-200 2474.75,-212 2474.75,-212 2474.75,-218 2468.75,-224 2462.75,-224"/>
<text text-anchor="middle" x="2436" y="-203.07" font-family="Monaco" font-size="9.00" fill="#cdd6f4">handle_signal</text>
</g>
<!-- main&#45;&gt;handle_signal -->
<g id="edge24" class="edge">
<title>main&#45;&gt;handle_signal</title>
<path fill="none" stroke="#585b70" d="M1956.92,-314.51C2157.01,-356.86 2177.42,-354.17 2394.09,-230.07"/>
<polygon fill="#585b70" stroke="#585b70" points="2395.64,-233.22 2402.57,-225.21 2392.16,-227.15 2395.64,-233.22"/>
</g>
<!-- miniweb_apply_openbsd_security -->
<g id="node26" class="node">
<title>miniweb_apply_openbsd_security</title>
<path fill="#313244" stroke="#585b70" stroke-width="1.2" d="M905.75,-224C905.75,-224 762.25,-224 762.25,-224 756.25,-224 750.25,-218 750.25,-212 750.25,-212 750.25,-200 750.25,-200 750.25,-194 756.25,-188 762.25,-188 762.25,-188 905.75,-188 905.75,-188 911.75,-188 917.75,-194 917.75,-200 917.75,-200 917.75,-212 917.75,-212 917.75,-218 911.75,-224 905.75,-224"/>
<text text-anchor="middle" x="834" y="-203.07" font-family="Monaco" font-size="9.00" fill="#cdd6f4">miniweb_apply_openbsd_security</text>
</g>
<!-- main&#45;&gt;miniweb_apply_openbsd_security -->
<g id="edge26" class="edge">
<title>main&#45;&gt;miniweb_apply_openbsd_security</title>
<path fill="none" stroke="#585b70" d="M1902.26,-307.77C1240.04,-283.77 1167.89,-280.54 926.31,-226.87"/>
<polygon fill="#585b70" stroke="#585b70" points="927.42,-223.53 916.9,-224.77 925.9,-230.37 927.42,-223.53"/>
</g>
<!-- miniweb_server_run -->
<g id="node31" class="node">
<title>miniweb_server_run</title>
<path fill="#313244" stroke="#585b70" stroke-width="1.2" d="M3253.38,-224C3253.38,-224 3170.62,-224 3170.62,-224 3164.62,-224 3158.62,-218 3158.62,-212 3158.62,-212 3158.62,-200 3158.62,-200 3158.62,-194 3164.62,-188 3170.62,-188 3170.62,-188 3253.38,-188 3253.38,-188 3259.38,-188 3265.38,-194 3265.38,-200 3265.38,-200 3265.38,-212 3265.38,-212 3265.38,-218 3259.38,-224 3253.38,-224"/>
<text text-anchor="middle" x="3212" y="-203.07" font-family="Monaco" font-size="9.00" fill="#cdd6f4">miniweb_server_run</text>
</g>
<!-- main&#45;&gt;miniweb_server_run -->
<g id="edge32" class="edge">
<title>main&#45;&gt;miniweb_server_run</title>
<path fill="none" stroke="#585b70" d="M1957.46,-309C2770.72,-315.46 2822.09,-314.84 3147.54,-224.09"/>
<polygon fill="#585b70" stroke="#585b70" points="3148.09,-227.57 3156.78,-221.51 3146.21,-220.82 3148.09,-227.57"/>
</g>
<!-- man_module_cleanup -->
<g id="node39" class="node">
<title>man_module_cleanup</title>
<path fill="#313244" stroke="#585b70" stroke-width="1.2" d="M3408.5,-224C3408.5,-224 3317.5,-224 3317.5,-224 3311.5,-224 3305.5,-218 3305.5,-212 3305.5,-212 3305.5,-200 3305.5,-200 3305.5,-194 3311.5,-188 3317.5,-188 3317.5,-188 3408.5,-188 3408.5,-188 3414.5,-188 3420.5,-194 3420.5,-200 3420.5,-200 3420.5,-212 3420.5,-212 3420.5,-218 3414.5,-224 3408.5,-224"/>
<text text-anchor="middle" x="3363" y="-203.07" font-family="Monaco" font-size="9.00" fill="#cdd6f4">man_module_cleanup</text>
</g>
<!-- main&#45;&gt;man_module_cleanup -->
<g id="edge40" class="edge">
<title>main&#45;&gt;man_module_cleanup</title>
<path fill="none" stroke="#585b70" d="M1957.54,-308.88C2873.81,-312.03 2929.06,-311.34 3293.98,-222.83"/>
<polygon fill="#585b70" stroke="#585b70" points="3294.78,-226.24 3303.67,-220.48 3293.13,-219.44 3294.78,-226.24"/>
</g>
<!-- networking_module_cleanup -->
<g id="node41" class="node">
<title>networking_module_cleanup</title>
<path fill="#313244" stroke="#585b70" stroke-width="1.2" d="M3593.88,-224C3593.88,-224 3472.12,-224 3472.12,-224 3466.12,-224 3460.12,-218 3460.12,-212 3460.12,-212 3460.12,-200 3460.12,-200 3460.12,-194 3466.12,-188 3472.12,-188 3472.12,-188 3593.88,-188 3593.88,-188 3599.88,-188 3605.88,-194 3605.88,-200 3605.88,-200 3605.88,-212 3605.88,-212 3605.88,-218 3599.88,-224 3593.88,-224"/>
<text text-anchor="middle" x="3533" y="-203.07" font-family="Monaco" font-size="9.00" fill="#cdd6f4">networking_module_cleanup</text>
</g>
<!-- main&#45;&gt;networking_module_cleanup -->
<g id="edge42" class="edge">
<title>main&#45;&gt;networking_module_cleanup</title>
<path fill="none" stroke="#585b70" d="M1957.62,-308.79C2980.92,-309.22 3047.89,-308.5 3448.74,-223.9"/>
<polygon fill="#585b70" stroke="#585b70" points="3449.24,-227.37 3458.3,-221.88 3447.8,-220.53 3449.24,-227.37"/>
</g>
<!-- metrics_module_cleanup -->
<g id="node43" class="node">
<title>metrics_module_cleanup</title>
<path fill="#313244" stroke="#585b70" stroke-width="1.2" d="M3762.25,-224C3762.25,-224 3657.75,-224 3657.75,-224 3651.75,-224 3645.75,-218 3645.75,-212 3645.75,-212 3645.75,-200 3645.75,-200 3645.75,-194 3651.75,-188 3657.75,-188 3657.75,-188 3762.25,-188 3762.25,-188 3768.25,-188 3774.25,-194 3774.25,-200 3774.25,-200 3774.25,-212 3774.25,-212 3774.25,-218 3768.25,-224 3762.25,-224"/>
<text text-anchor="middle" x="3710" y="-203.07" font-family="Monaco" font-size="9.00" fill="#cdd6f4">metrics_module_cleanup</text>
</g>
<!-- main&#45;&gt;metrics_module_cleanup -->
<g id="edge44" class="edge">
<title>main&#45;&gt;metrics_module_cleanup</title>
<path fill="none" stroke="#585b70" d="M1957.56,-308.74C3112.73,-307.05 3173.74,-306.3 3634.24,-220.22"/>
<polygon fill="#585b70" stroke="#585b70" points="3634.87,-223.66 3644.05,-218.38 3633.58,-216.78 3634.87,-223.66"/>
</g>
<!-- packages_cache_cleanup -->
<g id="node45" class="node">
<title>packages_cache_cleanup</title>
<path fill="#313244" stroke="#585b70" stroke-width="1.2" d="M1087.38,-224C1087.38,-224 980.62,-224 980.62,-224 974.62,-224 968.62,-218 968.62,-212 968.62,-212 968.62,-200 968.62,-200 968.62,-194 974.62,-188 980.62,-188 980.62,-188 1087.38,-188 1087.38,-188 1093.38,-188 1099.38,-194 1099.38,-200 1099.38,-200 1099.38,-212 1099.38,-212 1099.38,-218 1093.38,-224 1087.38,-224"/>
<text text-anchor="middle" x="1034" y="-203.07" font-family="Monaco" font-size="9.00" fill="#cdd6f4">packages_cache_cleanup</text>
</g>
<!-- main&#45;&gt;packages_cache_cleanup -->
<g id="edge46" class="edge">
<title>main&#45;&gt;packages_cache_cleanup</title>
<path fill="none" stroke="#585b70" d="M1902.4,-307.49C1366.63,-282.37 1306.53,-278.84 1110.67,-226.76"/>
<polygon fill="#585b70" stroke="#585b70" points="1111.74,-223.42 1101.18,-224.22 1109.94,-230.19 1111.74,-223.42"/>
</g>
<!-- http_handler_globals_cleanup -->
<g id="node47" class="node">
<title>http_handler_globals_cleanup</title>
<path fill="#313244" stroke="#585b70" stroke-width="1.2" d="M3953.5,-224C3953.5,-224 3826.5,-224 3826.5,-224 3820.5,-224 3814.5,-218 3814.5,-212 3814.5,-212 3814.5,-200 3814.5,-200 3814.5,-194 3820.5,-188 3826.5,-188 3826.5,-188 3953.5,-188 3953.5,-188 3959.5,-188 3965.5,-194 3965.5,-200 3965.5,-200 3965.5,-212 3965.5,-212 3965.5,-218 3959.5,-224 3953.5,-224"/>
<text text-anchor="middle" x="3890" y="-203.07" font-family="Monaco" font-size="9.00" fill="#cdd6f4">http_handler_globals_cleanup</text>
</g>
<!-- main&#45;&gt;http_handler_globals_cleanup -->
<g id="edge49" class="edge">
<title>main&#45;&gt;http_handler_globals_cleanup</title>
<path fill="none" stroke="#585b70" d="M1957.4,-308.71C3229.96,-305.38 3299.56,-304.62 3803.11,-220.57"/>
<polygon fill="#585b70" stroke="#585b70" points="3803.54,-224.05 3812.83,-218.95 3802.39,-217.14 3803.54,-224.05"/>
</g>
<!-- template_cache_cleanup -->
<g id="node48" class="node">
<title>template_cache_cleanup</title>
<path fill="#313244" stroke="#585b70" stroke-width="1.2" d="M4122.25,-224C4122.25,-224 4017.75,-224 4017.75,-224 4011.75,-224 4005.75,-218 4005.75,-212 4005.75,-212 4005.75,-200 4005.75,-200 4005.75,-194 4011.75,-188 4017.75,-188 4017.75,-188 4122.25,-188 4122.25,-188 4128.25,-188 4134.25,-194 4134.25,-200 4134.25,-200 4134.25,-212 4134.25,-212 4134.25,-218 4128.25,-224 4122.25,-224"/>
<text text-anchor="middle" x="4070" y="-203.07" font-family="Monaco" font-size="9.00" fill="#cdd6f4">template_cache_cleanup</text>
</g>
<!-- main&#45;&gt;template_cache_cleanup -->
<g id="edge50" class="edge">
<title>main&#45;&gt;template_cache_cleanup</title>
<path fill="none" stroke="#585b70" d="M1957.77,-308.69C3365.75,-304.01 3427.19,-303.27 3994.28,-217.48"/>
<polygon fill="#585b70" stroke="#585b70" points="3994.78,-220.95 4004.14,-215.99 3993.73,-214.03 3994.78,-220.95"/>
</g>
<!-- log_close -->
<g id="node49" class="node">
<title>log_close</title>
<path fill="#313244" stroke="#585b70" stroke-width="1.2" d="M4219.25,-224C4219.25,-224 4186.75,-224 4186.75,-224 4180.75,-224 4174.75,-218 4174.75,-212 4174.75,-212 4174.75,-200 4174.75,-200 4174.75,-194 4180.75,-188 4186.75,-188 4186.75,-188 4219.25,-188 4219.25,-188 4225.25,-188 4231.25,-194 4231.25,-200 4231.25,-200 4231.25,-212 4231.25,-212 4231.25,-218 4225.25,-224 4219.25,-224"/>
<text text-anchor="middle" x="4203" y="-203.07" font-family="Monaco" font-size="9.00" fill="#cdd6f4">log_close</text>
</g>
<!-- main&#45;&gt;log_close -->
<g id="edge51" class="edge">
<title>main&#45;&gt;log_close</title>
<path fill="none" stroke="#585b70" d="M1957.77,-308.68C3488.17,-303.08 3522.5,-302.43 4163.13,-211.65"/>
<polygon fill="#585b70" stroke="#585b70" points="4163.62,-215.12 4173.03,-210.25 4162.63,-208.19 4163.62,-215.12"/>
</g>
<!-- usage -->
<g id="node3" class="node">
<title>usage</title>
<path fill="#313244" stroke="#585b70" stroke-width="1.2" d="M42,-130C42,-130 12,-130 12,-130 6,-130 0,-124 0,-118 0,-118 0,-106 0,-106 0,-100 6,-94 12,-94 12,-94 42,-94 42,-94 48,-94 54,-100 54,-106 54,-106 54,-118 54,-118 54,-124 48,-130 42,-130"/>
<text text-anchor="middle" x="27" y="-109.08" font-family="Monaco" font-size="9.00" fill="#cdd6f4">usage</text>
</g>
<!-- parse_args&#45;&gt;usage -->
<g id="edge2" class="edge">
<title>parse_args&#45;&gt;usage</title>
<path fill="none" stroke="#585b70" d="M206.36,-195.88C114.59,-167.34 90.47,-158.66 59.65,-136.88"/>
<polygon fill="#585b70" stroke="#585b70" points="62.08,-134.32 51.94,-131.26 57.95,-139.98 62.08,-134.32"/>
</g>
<!-- conf_defaults -->
<g id="node4" class="node">
<title>conf_defaults</title>
<path fill="#313244" stroke="#585b70" stroke-width="1.2" d="M158,-130C158,-130 106,-130 106,-130 100,-130 94,-124 94,-118 94,-118 94,-106 94,-106 94,-100 100,-94 106,-94 106,-94 158,-94 158,-94 164,-94 170,-100 170,-106 170,-106 170,-118 170,-118 170,-124 164,-130 158,-130"/>
<text text-anchor="middle" x="132" y="-109.08" font-family="Monaco" font-size="9.00" fill="#cdd6f4">conf_defaults</text>
</g>
<!-- parse_args&#45;&gt;conf_defaults -->
<g id="edge3" class="edge">
<title>parse_args&#45;&gt;conf_defaults</title>
<path fill="none" stroke="#585b70" d="M207.21,-187.62C171.26,-166.51 159.16,-157.35 147.62,-139.64"/>
<polygon fill="#585b70" stroke="#585b70" points="150.85,-138.22 142.67,-131.47 144.86,-141.84 150.85,-138.22"/>
</g>
<!-- conf_load -->
<g id="node5" class="node">
<title>conf_load</title>
<path fill="#313244" stroke="#585b70" stroke-width="1.2" d="M256.38,-130C256.38,-130 221.62,-130 221.62,-130 215.62,-130 209.62,-124 209.62,-118 209.62,-118 209.62,-106 209.62,-106 209.62,-100 215.62,-94 221.62,-94 221.62,-94 256.38,-94 256.38,-94 262.38,-94 268.38,-100 268.38,-106 268.38,-106 268.38,-118 268.38,-118 268.38,-124 262.38,-130 256.38,-130"/>
<text text-anchor="middle" x="239" y="-109.08" font-family="Monaco" font-size="9.00" fill="#cdd6f4">conf_load</text>
</g>
<!-- parse_args&#45;&gt;conf_load -->
<g id="edge4" class="edge">
<title>parse_args&#45;&gt;conf_load</title>
<path fill="none" stroke="#585b70" d="M231.87,-187.84C224.04,-167.01 222.81,-157.79 228.17,-140.68"/>
<polygon fill="#585b70" stroke="#585b70" points="231.32,-142.25 231.32,-131.66 224.72,-139.94 231.32,-142.25"/>
</g>
<!-- conf_apply_cli -->
<g id="node6" class="node">
<title>conf_apply_cli</title>
<path fill="#313244" stroke="#585b70" stroke-width="1.2" d="M375.5,-130C375.5,-130 320.5,-130 320.5,-130 314.5,-130 308.5,-124 308.5,-118 308.5,-118 308.5,-106 308.5,-106 308.5,-100 314.5,-94 320.5,-94 320.5,-94 375.5,-94 375.5,-94 381.5,-94 387.5,-100 387.5,-106 387.5,-106 387.5,-118 387.5,-118 387.5,-124 381.5,-130 375.5,-130"/>
<text text-anchor="middle" x="348" y="-109.08" font-family="Monaco" font-size="9.00" fill="#cdd6f4">conf_apply_cli</text>
</g>
<!-- parse_args&#45;&gt;conf_apply_cli -->
<g id="edge5" class="edge">
<title>parse_args&#45;&gt;conf_apply_cli</title>
<path fill="none" stroke="#585b70" d="M249.11,-187.82C262.27,-165.19 271.5,-156.26 305.73,-136.08"/>
<polygon fill="#585b70" stroke="#585b70" points="307.34,-139.2 314.22,-131.15 303.82,-133.15 307.34,-139.2"/>
</g>
<!-- log_write -->
<g id="node10" class="node">
<title>log_write</title>
<path fill="#313244" stroke="#585b70" stroke-width="1.2" d="M509.25,-36C509.25,-36 476.75,-36 476.75,-36 470.75,-36 464.75,-30 464.75,-24 464.75,-24 464.75,-12 464.75,-12 464.75,-6 470.75,0 476.75,0 476.75,0 509.25,0 509.25,0 515.25,0 521.25,-6 521.25,-12 521.25,-12 521.25,-24 521.25,-24 521.25,-30 515.25,-36 509.25,-36"/>
<text text-anchor="middle" x="493" y="-15.07" font-family="Monaco" font-size="9.00" fill="#cdd6f4">log_write</text>
</g>
<!-- log_info&#45;&gt;log_write -->
<g id="edge9" class="edge">
<title>log_info&#45;&gt;log_write</title>
<path fill="none" stroke="#585b70" d="M582.37,-187.69C513.73,-120.03 504.4,-106.86 496.56,-47.56"/>
<polygon fill="#585b70" stroke="#585b70" points="500.06,-47.35 495.34,-37.86 493.11,-48.22 500.06,-47.35"/>
</g>
<!-- template_cache_reload_locked -->
<g id="node13" class="node">
<title>template_cache_reload_locked</title>
<path fill="#313244" stroke="#585b70" stroke-width="1.2" d="M1255,-130C1255,-130 1125,-130 1125,-130 1119,-130 1113,-124 1113,-118 1113,-118 1113,-106 1113,-106 1113,-100 1119,-94 1125,-94 1125,-94 1255,-94 1255,-94 1261,-94 1267,-100 1267,-106 1267,-106 1267,-118 1267,-118 1267,-124 1261,-130 1255,-130"/>
<text text-anchor="middle" x="1190" y="-109.08" font-family="Monaco" font-size="9.00" fill="#cdd6f4">template_cache_reload_locked</text>
</g>
<!-- template_cache_init&#45;&gt;template_cache_reload_locked -->
<g id="edge12" class="edge">
<title>template_cache_init&#45;&gt;template_cache_reload_locked</title>
<path fill="none" stroke="#585b70" d="M1814.37,-200.45C1466.28,-164.44 1399.79,-156.95 1278.59,-131.36"/>
<polygon fill="#585b70" stroke="#585b70" points="1279.45,-127.97 1268.94,-129.31 1277.99,-134.81 1279.45,-127.97"/>
</g>
<!-- log_error&#45;&gt;log_write -->
<g id="edge14" class="edge">
<title>log_error&#45;&gt;log_write</title>
<path fill="none" stroke="#585b70" d="M521.8,-93.81C503.36,-72.73 497.35,-63.35 494.94,-47.25"/>
<polygon fill="#585b70" stroke="#585b70" points="498.46,-47.29 493.98,-37.69 491.5,-47.99 498.46,-47.29"/>
</g>
<!-- url_registry_register -->
<g id="node16" class="node">
<title>url_registry_register</title>
<path fill="#313244" stroke="#585b70" stroke-width="1.2" d="M1401,-130C1401,-130 1319,-130 1319,-130 1313,-130 1307,-124 1307,-118 1307,-118 1307,-106 1307,-106 1307,-100 1313,-94 1319,-94 1319,-94 1401,-94 1401,-94 1407,-94 1413,-100 1413,-106 1413,-106 1413,-118 1413,-118 1413,-124 1407,-130 1401,-130"/>
<text text-anchor="middle" x="1360" y="-109.08" font-family="Monaco" font-size="9.00" fill="#cdd6f4">url_registry_register</text>
</g>
<!-- init_routes&#45;&gt;url_registry_register -->
<g id="edge16" class="edge">
<title>init_routes&#45;&gt;url_registry_register</title>
<path fill="none" stroke="#585b70" d="M1960.92,-202.42C1602.41,-162.37 1552.06,-156.32 1424.3,-127.02"/>
<polygon fill="#585b70" stroke="#585b70" points="1425.34,-123.66 1414.81,-124.83 1423.77,-130.48 1425.34,-123.66"/>
</g>
<!-- url_registry_register_prefix -->
<g id="node17" class="node">
<title>url_registry_register_prefix</title>
<path fill="#313244" stroke="#585b70" stroke-width="1.2" d="M1577.38,-130C1577.38,-130 1464.62,-130 1464.62,-130 1458.62,-130 1452.62,-124 1452.62,-118 1452.62,-118 1452.62,-106 1452.62,-106 1452.62,-100 1458.62,-94 1464.62,-94 1464.62,-94 1577.38,-94 1577.38,-94 1583.38,-94 1589.38,-100 1589.38,-106 1589.38,-106 1589.38,-118 1589.38,-118 1589.38,-124 1583.38,-130 1577.38,-130"/>
<text text-anchor="middle" x="1521" y="-109.08" font-family="Monaco" font-size="9.00" fill="#cdd6f4">url_registry_register_prefix</text>
</g>
<!-- init_routes&#45;&gt;url_registry_register_prefix -->
<g id="edge17" class="edge">
<title>init_routes&#45;&gt;url_registry_register_prefix</title>
<path fill="none" stroke="#585b70" d="M1960.99,-201.28C1720.68,-165.87 1669.75,-157.87 1589.81,-133.77"/>
<polygon fill="#585b70" stroke="#585b70" points="1590.88,-130.44 1580.29,-130.86 1588.83,-137.13 1590.88,-130.44"/>
</g>
<!-- views_module_attach_routes -->
<g id="node18" class="node">
<title>views_module_attach_routes</title>
<path fill="#313244" stroke="#585b70" stroke-width="1.2" d="M1762.88,-130C1762.88,-130 1641.12,-130 1641.12,-130 1635.12,-130 1629.12,-124 1629.12,-118 1629.12,-118 1629.12,-106 1629.12,-106 1629.12,-100 1635.12,-94 1641.12,-94 1641.12,-94 1762.88,-94 1762.88,-94 1768.88,-94 1774.88,-100 1774.88,-106 1774.88,-106 1774.88,-118 1774.88,-118 1774.88,-124 1768.88,-130 1762.88,-130"/>
<text text-anchor="middle" x="1702" y="-109.08" font-family="Monaco" font-size="9.00" fill="#cdd6f4">views_module_attach_routes</text>
</g>
<!-- init_routes&#45;&gt;views_module_attach_routes -->
<g id="edge18" class="edge">
<title>init_routes&#45;&gt;views_module_attach_routes</title>
<path fill="none" stroke="#585b70" d="M1960.9,-198.46C1825.09,-166.5 1792.17,-157.95 1746.83,-135.57"/>
<polygon fill="#585b70" stroke="#585b70" points="1748.46,-132.47 1737.96,-131.09 1745.31,-138.72 1748.46,-132.47"/>
</g>
<!-- metrics_module_attach_routes -->
<g id="node19" class="node">
<title>metrics_module_attach_routes</title>
<path fill="#313244" stroke="#585b70" stroke-width="1.2" d="M1957.38,-130C1957.38,-130 1826.62,-130 1826.62,-130 1820.62,-130 1814.62,-124 1814.62,-118 1814.62,-118 1814.62,-106 1814.62,-106 1814.62,-100 1820.62,-94 1826.62,-94 1826.62,-94 1957.38,-94 1957.38,-94 1963.38,-94 1969.38,-100 1969.38,-106 1969.38,-106 1969.38,-118 1969.38,-118 1969.38,-124 1963.38,-130 1957.38,-130"/>
<text text-anchor="middle" x="1892" y="-109.08" font-family="Monaco" font-size="9.00" fill="#cdd6f4">metrics_module_attach_routes</text>
</g>
<!-- init_routes&#45;&gt;metrics_module_attach_routes -->
<g id="edge19" class="edge">
<title>init_routes&#45;&gt;metrics_module_attach_routes</title>
<path fill="none" stroke="#585b70" d="M1963.06,-187.51C1929.08,-166.22 1917.42,-156.96 1906.83,-139.95"/>
<polygon fill="#585b70" stroke="#585b70" points="1910.03,-138.49 1902.03,-131.55 1903.95,-141.97 1910.03,-138.49"/>
</g>
<!-- networking_module_attach_routes -->
<g id="node20" class="node">
<title>networking_module_attach_routes</title>
<path fill="#313244" stroke="#585b70" stroke-width="1.2" d="M2169,-130C2169,-130 2021,-130 2021,-130 2015,-130 2009,-124 2009,-118 2009,-118 2009,-106 2009,-106 2009,-100 2015,-94 2021,-94 2021,-94 2169,-94 2169,-94 2175,-94 2181,-100 2181,-106 2181,-106 2181,-118 2181,-118 2181,-124 2175,-130 2169,-130"/>
<text text-anchor="middle" x="2095" y="-109.08" font-family="Monaco" font-size="9.00" fill="#cdd6f4">networking_module_attach_routes</text>
</g>
<!-- init_routes&#45;&gt;networking_module_attach_routes -->
<g id="edge20" class="edge">
<title>init_routes&#45;&gt;networking_module_attach_routes</title>
<path fill="none" stroke="#585b70" d="M2001.95,-187.69C2013.89,-164.37 2022.34,-155.33 2053.83,-136.11"/>
<polygon fill="#585b70" stroke="#585b70" points="2055.28,-139.32 2062.05,-131.17 2051.68,-133.32 2055.28,-139.32"/>
</g>
<!-- man_module_attach_routes -->
<g id="node21" class="node">
<title>man_module_attach_routes</title>
<path fill="#313244" stroke="#585b70" stroke-width="1.2" d="M2350.62,-130C2350.62,-130 2233.38,-130 2233.38,-130 2227.38,-130 2221.38,-124 2221.38,-118 2221.38,-118 2221.38,-106 2221.38,-106 2221.38,-100 2227.38,-94 2233.38,-94 2233.38,-94 2350.62,-94 2350.62,-94 2356.62,-94 2362.62,-100 2362.62,-106 2362.62,-106 2362.62,-118 2362.62,-118 2362.62,-124 2356.62,-130 2350.62,-130"/>
<text text-anchor="middle" x="2292" y="-109.08" font-family="Monaco" font-size="9.00" fill="#cdd6f4">man_module_attach_routes</text>
</g>
<!-- init_routes&#45;&gt;man_module_attach_routes -->
<g id="edge21" class="edge">
<title>init_routes&#45;&gt;man_module_attach_routes</title>
<path fill="none" stroke="#585b70" d="M2021.52,-187.55C2073.1,-154.94 2097.38,-146.67 2209.91,-126.42"/>
<polygon fill="#585b70" stroke="#585b70" points="2210.36,-129.89 2219.59,-124.68 2209.13,-123 2210.36,-129.89"/>
</g>
<!-- packages_module_attach_routes -->
<g id="node22" class="node">
<title>packages_module_attach_routes</title>
<path fill="#313244" stroke="#585b70" stroke-width="1.2" d="M2554.88,-130C2554.88,-130 2415.12,-130 2415.12,-130 2409.12,-130 2403.12,-124 2403.12,-118 2403.12,-118 2403.12,-106 2403.12,-106 2403.12,-100 2409.12,-94 2415.12,-94 2415.12,-94 2554.88,-94 2554.88,-94 2560.88,-94 2566.88,-100 2566.88,-106 2566.88,-106 2566.88,-118 2566.88,-118 2566.88,-124 2560.88,-130 2554.88,-130"/>
<text text-anchor="middle" x="2485" y="-109.08" font-family="Monaco" font-size="9.00" fill="#cdd6f4">packages_module_attach_routes</text>
</g>
<!-- init_routes&#45;&gt;packages_module_attach_routes -->
<g id="edge22" class="edge">
<title>init_routes&#45;&gt;packages_module_attach_routes</title>
<path fill="none" stroke="#585b70" d="M2024.75,-199.84C2254.03,-155.35 2317.59,-143.04 2391.65,-129.24"/>
<polygon fill="#585b70" stroke="#585b70" points="2391.99,-132.74 2401.18,-127.47 2390.71,-125.86 2391.99,-132.74"/>
</g>
<!-- miniweb_module_attach_enabled -->
<g id="node23" class="node">
<title>miniweb_module_attach_enabled</title>
<path fill="#313244" stroke="#585b70" stroke-width="1.2" d="M2761.38,-130C2761.38,-130 2618.62,-130 2618.62,-130 2612.62,-130 2606.62,-124 2606.62,-118 2606.62,-118 2606.62,-106 2606.62,-106 2606.62,-100 2612.62,-94 2618.62,-94 2618.62,-94 2761.38,-94 2761.38,-94 2767.38,-94 2773.38,-100 2773.38,-106 2773.38,-106 2773.38,-118 2773.38,-118 2773.38,-124 2767.38,-130 2761.38,-130"/>
<text text-anchor="middle" x="2690" y="-109.08" font-family="Monaco" font-size="9.00" fill="#cdd6f4">miniweb_module_attach_enabled</text>
</g>
<!-- init_routes&#45;&gt;miniweb_module_attach_enabled -->
<g id="edge23" class="edge">
<title>init_routes&#45;&gt;miniweb_module_attach_enabled</title>
<path fill="none" stroke="#585b70" d="M2024.86,-202.27C2399.12,-158.41 2469.93,-149.93 2595.11,-128.58"/>
<polygon fill="#585b70" stroke="#585b70" points="2595.45,-132.07 2604.71,-126.93 2594.26,-125.17 2595.45,-132.07"/>
</g>
<!-- miniweb_server_stop -->
<g id="node25" class="node">
<title>miniweb_server_stop</title>
<path fill="#313244" stroke="#585b70" stroke-width="1.2" d="M2912.25,-130C2912.25,-130 2825.75,-130 2825.75,-130 2819.75,-130 2813.75,-124 2813.75,-118 2813.75,-118 2813.75,-106 2813.75,-106 2813.75,-100 2819.75,-94 2825.75,-94 2825.75,-94 2912.25,-94 2912.25,-94 2918.25,-94 2924.25,-100 2924.25,-106 2924.25,-106 2924.25,-118 2924.25,-118 2924.25,-124 2918.25,-130 2912.25,-130"/>
<text text-anchor="middle" x="2869" y="-109.08" font-family="Monaco" font-size="9.00" fill="#cdd6f4">miniweb_server_stop</text>
</g>
<!-- handle_signal&#45;&gt;miniweb_server_stop -->
<g id="edge25" class="edge">
<title>handle_signal&#45;&gt;miniweb_server_stop</title>
<path fill="none" stroke="#585b70" d="M2474.9,-199.79C2686.95,-165.9 2733.68,-157.77 2805.53,-134.04"/>
<polygon fill="#585b70" stroke="#585b70" points="2806.53,-137.4 2814.9,-130.9 2804.3,-130.76 2806.53,-137.4"/>
</g>
<!-- miniweb_apply_openbsd_security&#45;&gt;log_error -->
<g id="edge30" class="edge">
<title>miniweb_apply_openbsd_security&#45;&gt;log_error</title>
<path fill="none" stroke="#585b70" d="M752.45,-187.53C648.44,-163.66 620.35,-155.03 576.3,-132.45"/>
<polygon fill="#585b70" stroke="#585b70" points="578.13,-129.46 567.64,-127.94 574.9,-135.67 578.13,-129.46"/>
</g>
<!-- unveil -->
<g id="node27" class="node">
<title>unveil</title>
<path fill="#313244" stroke="#585b70" stroke-width="1.2" d="M648,-130C648,-130 618,-130 618,-130 612,-130 606,-124 606,-118 606,-118 606,-106 606,-106 606,-100 612,-94 618,-94 618,-94 648,-94 648,-94 654,-94 660,-100 660,-106 660,-106 660,-118 660,-118 660,-124 654,-130 648,-130"/>
<text text-anchor="middle" x="633" y="-109.08" font-family="Monaco" font-size="9.00" fill="#cdd6f4">unveil</text>
</g>
<!-- miniweb_apply_openbsd_security&#45;&gt;unveil -->
<g id="edge27" class="edge">
<title>miniweb_apply_openbsd_security&#45;&gt;unveil</title>
<path fill="none" stroke="#585b70" d="M777.78,-187.56C711.5,-165.54 690.18,-156.5 664.46,-137.38"/>
<polygon fill="#585b70" stroke="#585b70" points="666.75,-134.73 656.69,-131.39 662.48,-140.27 666.75,-134.73"/>
</g>
<!-- pledge -->
<g id="node28" class="node">
<title>pledge</title>
<path fill="#313244" stroke="#585b70" stroke-width="1.2" d="M742,-130C742,-130 712,-130 712,-130 706,-130 700,-124 700,-118 700,-118 700,-106 700,-106 700,-100 706,-94 712,-94 712,-94 742,-94 742,-94 748,-94 754,-100 754,-106 754,-106 754,-118 754,-118 754,-124 748,-130 742,-130"/>
<text text-anchor="middle" x="727" y="-109.08" font-family="Monaco" font-size="9.00" fill="#cdd6f4">pledge</text>
</g>
<!-- miniweb_apply_openbsd_security&#45;&gt;pledge -->
<g id="edge28" class="edge">
<title>miniweb_apply_openbsd_security&#45;&gt;pledge</title>
<path fill="none" stroke="#585b70" d="M802.21,-187.6C766.26,-166.47 754.16,-157.3 742.62,-139.61"/>
<polygon fill="#585b70" stroke="#585b70" points="745.85,-138.19 737.67,-131.45 739.86,-141.82 745.85,-138.19"/>
</g>
<!-- log_errno -->
<g id="node29" class="node">
<title>log_errno</title>
<path fill="#313244" stroke="#585b70" stroke-width="1.2" d="M840,-130C840,-130 806,-130 806,-130 800,-130 794,-124 794,-118 794,-118 794,-106 794,-106 794,-100 800,-94 806,-94 806,-94 840,-94 840,-94 846,-94 852,-100 852,-106 852,-106 852,-118 852,-118 852,-124 846,-130 840,-130"/>
<text text-anchor="middle" x="823" y="-109.08" font-family="Monaco" font-size="9.00" fill="#cdd6f4">log_errno</text>
</g>
<!-- miniweb_apply_openbsd_security&#45;&gt;log_errno -->
<g id="edge29" class="edge">
<title>miniweb_apply_openbsd_security&#45;&gt;log_errno</title>
<path fill="none" stroke="#585b70" d="M824.7,-187.82C814.48,-167.17 812.11,-157.93 815.36,-141.13"/>
<polygon fill="#585b70" stroke="#585b70" points="818.7,-142.22 817.57,-131.69 811.88,-140.63 818.7,-142.22"/>
</g>
<!-- log_debug -->
<g id="node30" class="node">
<title>log_debug</title>
<path fill="#313244" stroke="#585b70" stroke-width="1.2" d="M943.62,-130C943.62,-130 904.38,-130 904.38,-130 898.38,-130 892.38,-124 892.38,-118 892.38,-118 892.38,-106 892.38,-106 892.38,-100 898.38,-94 904.38,-94 904.38,-94 943.62,-94 943.62,-94 949.62,-94 955.62,-100 955.62,-106 955.62,-106 955.62,-118 955.62,-118 955.62,-124 949.62,-130 943.62,-130"/>
<text text-anchor="middle" x="924" y="-109.08" font-family="Monaco" font-size="9.00" fill="#cdd6f4">log_debug</text>
</g>
<!-- miniweb_apply_openbsd_security&#45;&gt;log_debug -->
<g id="edge31" class="edge">
<title>miniweb_apply_openbsd_security&#45;&gt;log_debug</title>
<path fill="none" stroke="#585b70" d="M841.49,-187.8C851.21,-165.44 858.68,-156.46 886.88,-136.83"/>
<polygon fill="#585b70" stroke="#585b70" points="888.79,-139.76 895.07,-131.22 884.84,-133.98 888.79,-139.76"/>
</g>
<!-- miniweb_work_queue_init -->
<g id="node32" class="node">
<title>miniweb_work_queue_init</title>
<path fill="#313244" stroke="#585b70" stroke-width="1.2" d="M3084.12,-130C3084.12,-130 2975.88,-130 2975.88,-130 2969.88,-130 2963.88,-124 2963.88,-118 2963.88,-118 2963.88,-106 2963.88,-106 2963.88,-100 2969.88,-94 2975.88,-94 2975.88,-94 3084.12,-94 3084.12,-94 3090.12,-94 3096.12,-100 3096.12,-106 3096.12,-106 3096.12,-118 3096.12,-118 3096.12,-124 3090.12,-130 3084.12,-130"/>
<text text-anchor="middle" x="3030" y="-109.08" font-family="Monaco" font-size="9.00" fill="#cdd6f4">miniweb_work_queue_init</text>
</g>
<!-- miniweb_server_run&#45;&gt;miniweb_work_queue_init -->
<g id="edge33" class="edge">
<title>miniweb_server_run&#45;&gt;miniweb_work_queue_init</title>
<path fill="none" stroke="#585b70" d="M3192.43,-187.72C3166.55,-164.35 3150.71,-155.56 3092.5,-134.28"/>
<polygon fill="#585b70" stroke="#585b70" points="3093.98,-131.1 3083.38,-130.98 3091.59,-137.68 3093.98,-131.1"/>
</g>
<!-- miniweb_connection_pool_init -->
<g id="node33" class="node">
<title>miniweb_connection_pool_init</title>
<path fill="#313244" stroke="#585b70" stroke-width="1.2" d="M3275.5,-130C3275.5,-130 3148.5,-130 3148.5,-130 3142.5,-130 3136.5,-124 3136.5,-118 3136.5,-118 3136.5,-106 3136.5,-106 3136.5,-100 3142.5,-94 3148.5,-94 3148.5,-94 3275.5,-94 3275.5,-94 3281.5,-94 3287.5,-100 3287.5,-106 3287.5,-106 3287.5,-118 3287.5,-118 3287.5,-124 3281.5,-130 3275.5,-130"/>
<text text-anchor="middle" x="3212" y="-109.08" font-family="Monaco" font-size="9.00" fill="#cdd6f4">miniweb_connection_pool_init</text>
</g>
<!-- miniweb_server_run&#45;&gt;miniweb_connection_pool_init -->
<g id="edge34" class="edge">
<title>miniweb_server_run&#45;&gt;miniweb_connection_pool_init</title>
<path fill="none" stroke="#585b70" d="M3219.13,-187.81C3226.96,-166.94 3228.19,-157.73 3222.83,-140.63"/>
<polygon fill="#585b70" stroke="#585b70" points="3226.29,-139.91 3219.68,-131.63 3219.68,-142.22 3226.29,-139.91"/>
</g>
<!-- set_nonblock -->
<g id="node34" class="node">
<title>set_nonblock</title>
<path fill="#313244" stroke="#585b70" stroke-width="1.2" d="M3390.62,-130C3390.62,-130 3339.38,-130 3339.38,-130 3333.38,-130 3327.38,-124 3327.38,-118 3327.38,-118 3327.38,-106 3327.38,-106 3327.38,-100 3333.38,-94 3339.38,-94 3339.38,-94 3390.62,-94 3390.62,-94 3396.62,-94 3402.62,-100 3402.62,-106 3402.62,-106 3402.62,-118 3402.62,-118 3402.62,-124 3396.62,-130 3390.62,-130"/>
<text text-anchor="middle" x="3365" y="-109.08" font-family="Monaco" font-size="9.00" fill="#cdd6f4">set_nonblock</text>
</g>
<!-- miniweb_server_run&#45;&gt;set_nonblock -->
<g id="edge35" class="edge">
<title>miniweb_server_run&#45;&gt;set_nonblock</title>
<path fill="none" stroke="#585b70" d="M3255.61,-187.55C3306.1,-165.9 3322.75,-156.8 3341.18,-138.35"/>
<polygon fill="#585b70" stroke="#585b70" points="3343.3,-141.21 3347.66,-131.56 3338.23,-136.38 3343.3,-141.21"/>
</g>
<!-- kqueue -->
<g id="node35" class="node">
<title>kqueue</title>
<path fill="#313244" stroke="#585b70" stroke-width="1.2" d="M3485,-130C3485,-130 3455,-130 3455,-130 3449,-130 3443,-124 3443,-118 3443,-118 3443,-106 3443,-106 3443,-100 3449,-94 3455,-94 3455,-94 3485,-94 3485,-94 3491,-94 3497,-100 3497,-106 3497,-106 3497,-118 3497,-118 3497,-124 3491,-130 3485,-130"/>
<text text-anchor="middle" x="3470" y="-109.08" font-family="Monaco" font-size="9.00" fill="#cdd6f4">kqueue</text>
</g>
<!-- miniweb_server_run&#45;&gt;kqueue -->
<g id="edge36" class="edge">
<title>miniweb_server_run&#45;&gt;kqueue</title>
<path fill="none" stroke="#585b70" d="M3265.65,-192.13C3368.09,-165.5 3394.87,-156.92 3433.17,-134.65"/>
<polygon fill="#585b70" stroke="#585b70" points="3434.55,-137.9 3441.35,-129.78 3430.97,-131.89 3434.55,-137.9"/>
</g>
<!-- kevent -->
<g id="node36" class="node">
<title>kevent</title>
<path fill="#313244" stroke="#585b70" stroke-width="1.2" d="M3579,-130C3579,-130 3549,-130 3549,-130 3543,-130 3537,-124 3537,-118 3537,-118 3537,-106 3537,-106 3537,-100 3543,-94 3549,-94 3549,-94 3579,-94 3579,-94 3585,-94 3591,-100 3591,-106 3591,-106 3591,-118 3591,-118 3591,-124 3585,-130 3579,-130"/>
<text text-anchor="middle" x="3564" y="-109.08" font-family="Monaco" font-size="9.00" fill="#cdd6f4">kevent</text>
</g>
<!-- miniweb_server_run&#45;&gt;kevent -->
<g id="edge37" class="edge">
<title>miniweb_server_run&#45;&gt;kevent</title>
<path fill="none" stroke="#585b70" d="M3265.63,-195.74C3431.93,-163.85 3462.35,-156.64 3525.98,-128.95"/>
<polygon fill="#585b70" stroke="#585b70" points="3527.37,-132.17 3535.12,-124.94 3524.56,-125.76 3527.37,-132.17"/>
</g>
<!-- sweep_idle -->
<g id="node37" class="node">
<title>sweep_idle</title>
<path fill="#313244" stroke="#585b70" stroke-width="1.2" d="M3683.38,-130C3683.38,-130 3642.62,-130 3642.62,-130 3636.62,-130 3630.62,-124 3630.62,-118 3630.62,-118 3630.62,-106 3630.62,-106 3630.62,-100 3636.62,-94 3642.62,-94 3642.62,-94 3683.38,-94 3683.38,-94 3689.38,-94 3695.38,-100 3695.38,-106 3695.38,-106 3695.38,-118 3695.38,-118 3695.38,-124 3689.38,-130 3683.38,-130"/>
<text text-anchor="middle" x="3663" y="-109.08" font-family="Monaco" font-size="9.00" fill="#cdd6f4">sweep_idle</text>
</g>
<!-- miniweb_server_run&#45;&gt;sweep_idle -->
<g id="edge38" class="edge">
<title>miniweb_server_run&#45;&gt;sweep_idle</title>
<path fill="none" stroke="#585b70" d="M3265.48,-197.97C3495.92,-163.32 3531.36,-156.88 3619.48,-127.01"/>
<polygon fill="#585b70" stroke="#585b70" points="3620.45,-130.38 3628.78,-123.84 3618.19,-123.76 3620.45,-130.38"/>
</g>
<!-- miniweb_work_queue_broadcast_shutdown -->
<g id="node38" class="node">
<title>miniweb_work_queue_broadcast_shutdown</title>
<path fill="#313244" stroke="#585b70" stroke-width="1.2" d="M3936.25,-130C3936.25,-130 3747.75,-130 3747.75,-130 3741.75,-130 3735.75,-124 3735.75,-118 3735.75,-118 3735.75,-106 3735.75,-106 3735.75,-100 3741.75,-94 3747.75,-94 3747.75,-94 3936.25,-94 3936.25,-94 3942.25,-94 3948.25,-100 3948.25,-106 3948.25,-106 3948.25,-118 3948.25,-118 3948.25,-124 3942.25,-130 3936.25,-130"/>
<text text-anchor="middle" x="3842" y="-109.08" font-family="Monaco" font-size="9.00" fill="#cdd6f4">miniweb_work_queue_broadcast_shutdown</text>
</g>
<!-- miniweb_server_run&#45;&gt;miniweb_work_queue_broadcast_shutdown -->
<g id="edge39" class="edge">
<title>miniweb_server_run&#45;&gt;miniweb_work_queue_broadcast_shutdown</title>
<path fill="none" stroke="#585b70" d="M3265.73,-200.16C3581.16,-165.89 3645.8,-158.18 3754.78,-133.02"/>
<polygon fill="#585b70" stroke="#585b70" points="3755.41,-136.46 3764.35,-130.79 3753.82,-129.65 3755.41,-136.46"/>
</g>
<!-- man_render_cache_cleanup -->
<g id="node40" class="node">
<title>man_render_cache_cleanup</title>
<path fill="#313244" stroke="#585b70" stroke-width="1.2" d="M4119.38,-130C4119.38,-130 4000.62,-130 4000.62,-130 3994.62,-130 3988.62,-124 3988.62,-118 3988.62,-118 3988.62,-106 3988.62,-106 3988.62,-100 3994.62,-94 4000.62,-94 4000.62,-94 4119.38,-94 4119.38,-94 4125.38,-94 4131.38,-100 4131.38,-106 4131.38,-106 4131.38,-118 4131.38,-118 4131.38,-124 4125.38,-130 4119.38,-130"/>
<text text-anchor="middle" x="4060" y="-109.08" font-family="Monaco" font-size="9.00" fill="#cdd6f4">man_render_cache_cleanup</text>
</g>
<!-- man_module_cleanup&#45;&gt;man_render_cache_cleanup -->
<g id="edge41" class="edge">
<title>man_module_cleanup&#45;&gt;man_render_cache_cleanup</title>
<path fill="none" stroke="#585b70" d="M3420.77,-200.33C3784.11,-164.65 3847.46,-157.71 3977.22,-130.11"/>
<polygon fill="#585b70" stroke="#585b70" points="3977.8,-133.57 3986.85,-128.05 3976.34,-126.72 3977.8,-133.57"/>
</g>
<!-- pthread_mutex_destroy -->
<g id="node42" class="node">
<title>pthread_mutex_destroy</title>
<path fill="#313244" stroke="#585b70" stroke-width="1.2" d="M4283,-130C4283,-130 4183,-130 4183,-130 4177,-130 4171,-124 4171,-118 4171,-118 4171,-106 4171,-106 4171,-100 4177,-94 4183,-94 4183,-94 4283,-94 4283,-94 4289,-94 4295,-100 4295,-106 4295,-106 4295,-118 4295,-118 4295,-124 4289,-130 4283,-130"/>
<text text-anchor="middle" x="4233" y="-109.08" font-family="Monaco" font-size="9.00" fill="#cdd6f4">pthread_mutex_destroy</text>
</g>
<!-- networking_module_cleanup&#45;&gt;pthread_mutex_destroy -->
<g id="edge43" class="edge">
<title>networking_module_cleanup&#45;&gt;pthread_mutex_destroy</title>
<path fill="none" stroke="#585b70" d="M3606.08,-198.87C3966.4,-163.68 4024.33,-157.08 4159.53,-128.09"/>
<polygon fill="#585b70" stroke="#585b70" points="4160.17,-131.53 4169.21,-126 4158.7,-124.69 4160.17,-131.53"/>
</g>
<!-- ring_free -->
<g id="node44" class="node">
<title>ring_free</title>
<path fill="#313244" stroke="#585b70" stroke-width="1.2" d="M4378.88,-130C4378.88,-130 4347.12,-130 4347.12,-130 4341.12,-130 4335.12,-124 4335.12,-118 4335.12,-118 4335.12,-106 4335.12,-106 4335.12,-100 4341.12,-94 4347.12,-94 4347.12,-94 4378.88,-94 4378.88,-94 4384.88,-94 4390.88,-100 4390.88,-106 4390.88,-106 4390.88,-118 4390.88,-118 4390.88,-124 4384.88,-130 4378.88,-130"/>
<text text-anchor="middle" x="4363" y="-109.08" font-family="Monaco" font-size="9.00" fill="#cdd6f4">ring_free</text>
</g>
<!-- metrics_module_cleanup&#45;&gt;ring_free -->
<g id="edge45" class="edge">
<title>metrics_module_cleanup&#45;&gt;ring_free</title>
<path fill="none" stroke="#585b70" d="M3774.56,-199.27C4138.99,-161.24 4174.44,-156.51 4323.68,-121.32"/>
<polygon fill="#585b70" stroke="#585b70" points="4324.23,-124.79 4333.16,-119.08 4322.62,-117.97 4324.23,-124.79"/>
</g>
<!-- packages_cache_cleanup&#45;&gt;log_debug -->
<g id="edge47" class="edge">
<title>packages_cache_cleanup&#45;&gt;log_debug</title>
<path fill="none" stroke="#585b70" d="M1001.45,-187.58C964.81,-166.54 952.34,-157.36 940.42,-139.85"/>
<polygon fill="#585b70" stroke="#585b70" points="943.62,-138.35 935.31,-131.77 937.7,-142.1 943.62,-138.35"/>
</g>
<!-- pkg_ring_free -->
<g id="node46" class="node">
<title>pkg_ring_free</title>
<path fill="#313244" stroke="#585b70" stroke-width="1.2" d="M1060.75,-130C1060.75,-130 1007.25,-130 1007.25,-130 1001.25,-130 995.25,-124 995.25,-118 995.25,-118 995.25,-106 995.25,-106 995.25,-100 1001.25,-94 1007.25,-94 1007.25,-94 1060.75,-94 1060.75,-94 1066.75,-94 1072.75,-100 1072.75,-106 1072.75,-106 1072.75,-118 1072.75,-118 1072.75,-124 1066.75,-130 1060.75,-130"/>
<text text-anchor="middle" x="1034" y="-109.08" font-family="Monaco" font-size="9.00" fill="#cdd6f4">pkg_ring_free</text>
</g>
<!-- packages_cache_cleanup&#45;&gt;pkg_ring_free -->
<g id="edge48" class="edge">
<title>packages_cache_cleanup&#45;&gt;pkg_ring_free</title>
<path fill="none" stroke="#585b70" d="M1026.87,-187.82C1019.04,-166.96 1017.81,-157.74 1023.17,-140.64"/>
<polygon fill="#585b70" stroke="#585b70" points="1026.32,-142.23 1026.32,-131.64 1019.71,-139.92 1026.32,-142.23"/>
</g>
</g>
</svg>
