<svg xmlns="http://www.w3.org/2000/svg" xmlns:xlink="http://www.w3.org/1999/xlink" contentStyleType="text/css" height="672px" preserveAspectRatio="none" style="width:1383px;height:672px;background:#FFFFFF;" version="1.1" viewBox="0 0 1383 672" width="1383px" zoomAndPan="magnify"><defs/><g><!--cluster <&aperture*1> Core & Network--><g id="cluster_&lt;&amp;aperture*1> Core &amp; Network"><path d="M225.5,6 L370.8333,6 A3.75,3.75 0 0 1 373.3333,8.5 L380.3333,28.2969 L508.5,28.2969 A2.5,2.5 0 0 1 511,30.7969 L511,224.09 A2.5,2.5 0 0 1 508.5,226.59 L225.5,226.59 A2.5,2.5 0 0 1 223,224.09 L223,8.5 A2.5,2.5 0 0 1 225.5,6 " fill="none" style="stroke:#000000;stroke-width:1.5;"/><line style="stroke:#000000;stroke-width:1.5;" x1="223" x2="380.3333" y1="28.2969" y2="28.2969"/><path d="M232.6667,11.4635 C231.8617,11.4635 231.1033,11.6852 230.4383,12.0469 L234.195,14.7769 L235.07,12.1519 C234.37,11.7319 233.5417,11.4635 232.6667,11.4635 M229.4583,12.7819 C228.5717,13.6335 228,14.8119 228,16.1419 C228,16.4335 228.0233,16.7019 228.07,16.9819 L231.675,14.3919 L229.4467,12.7819 M236.0267,12.9335 L234.6033,17.3085 L237.1583,17.3085 C237.2517,16.9352 237.345,16.5502 237.345,16.1419 C237.345,14.8935 236.8317,13.7735 236.0267,12.9335 M230.52,16.6902 L228.4783,18.1485 C229.12,19.4669 230.345,20.4702 231.8383,20.7385 L230.52,16.6902 M232.34,18.4752 L233.075,20.7735 C234.6267,20.6335 235.945,19.7469 236.68,18.4752 L232.34,18.4752 " fill="#000000" style="stroke:;stroke-width:0.0;stroke-dasharray:;"/><text fill="#000000" font-family="sans-serif" font-size="14" font-weight="bold" lengthAdjust="spacing" textLength="128" x="243.3333" y="20.9951">Core &amp; Network</text></g><!--cluster <&fork*1> Routing--><g id="cluster_&lt;&amp;fork*1> Routing"><path d="M257.5,275.59 L334.8333,275.59 A3.75,3.75 0 0 1 337.3333,278.09 L344.3333,297.8869 L641.5,297.8869 A2.5,2.5 0 0 1 644,300.3869 L644,370.39 A2.5,2.5 0 0 1 641.5,372.89 L257.5,372.89 A2.5,2.5 0 0 1 255,370.39 L255,278.09 A2.5,2.5 0 0 1 257.5,275.59 " fill="none" style="stroke:#000000;stroke-width:1.5;"/><line style="stroke:#000000;stroke-width:1.5;" x1="255" x2="344.3333" y1="297.8869" y2="297.8869"/><path d="M261.75,281.0535 C260.7817,281.0535 260,281.8352 260,282.8035 C260,283.5735 260.4783,284.2035 261.1667,284.4485 L261.1667,287.0035 C260.4783,287.2369 260,287.8785 260,288.6485 C260,289.6169 260.7817,290.3985 261.75,290.3985 C262.7183,290.3985 263.5,289.6169 263.5,288.6485 C263.5,287.9485 263.1033,287.3652 262.52,287.0852 C262.625,286.9802 262.765,286.8985 262.9167,286.8985 L265.25,286.8985 C266.2067,286.8985 267,286.1052 267,285.1485 L267,284.4602 C267.6883,284.2269 268.1667,283.5852 268.1667,282.8152 C268.1667,281.8469 267.385,281.0652 266.4167,281.0652 C265.4483,281.0652 264.6667,281.8469 264.6667,282.8152 C264.6667,283.5852 265.145,284.2152 265.8333,284.4602 L265.8333,285.1485 C265.8333,285.4752 265.5767,285.7319 265.25,285.7319 L262.9167,285.7319 C262.7183,285.7319 262.5083,285.7785 262.3333,285.8369 L262.3333,284.4485 C263.0217,284.2152 263.5,283.5735 263.5,282.8035 C263.5,281.8352 262.7183,281.0535 261.75,281.0535 " fill="#000000" style="stroke:;stroke-width:0.0;stroke-dasharray:;"/><text fill="#000000" font-family="sans-serif" font-size="14" font-weight="bold" lengthAdjust="spacing" textLength="60" x="275.3333" y="290.5851">Routing</text></g><!--cluster <&puzzle-piece*1> Modules--><g id="cluster_&lt;&amp;puzzle-piece*1> Modules"><path d="M8.5,421.89 L91.8333,421.89 A3.75,3.75 0 0 1 94.3333,424.39 L101.3333,444.1869 L713.5,444.1869 A2.5,2.5 0 0 1 716,446.6869 L716,516.68 A2.5,2.5 0 0 1 713.5,519.18 L8.5,519.18 A2.5,2.5 0 0 1 6,516.68 L6,424.39 A2.5,2.5 0 0 1 8.5,421.89 " fill="none" style="stroke:#000000;stroke-width:1.5;"/><line style="stroke:#000000;stroke-width:1.5;" x1="6" x2="101.3333" y1="444.1869" y2="444.1869"/><path d="M14.5,427.3535 C14.1733,427.3535 13.87,427.4702 13.66,427.6802 C13.45,427.8902 13.3333,428.1935 13.3333,428.5202 C13.3333,428.8469 13.5433,429.0802 13.66,429.3602 C13.695,429.4302 13.695,429.5469 13.695,429.6869 L11,429.6869 L11,436.6869 L13.695,436.6869 C13.695,436.5469 13.6833,436.4302 13.66,436.3602 C13.5433,436.0802 13.3333,435.8469 13.3333,435.5202 C13.3333,435.1935 13.45,434.8902 13.66,434.6802 C13.87,434.4702 14.1733,434.3535 14.5,434.3535 C14.8267,434.3535 15.13,434.4702 15.34,434.6802 C15.55,434.8902 15.6667,435.1935 15.6667,435.5202 C15.6667,435.8469 15.4567,436.0802 15.34,436.3602 C15.305,436.4302 15.305,436.5469 15.305,436.6869 L18,436.6869 L18,433.9919 C18.14,433.9919 18.2567,434.0035 18.3267,434.0269 C18.6067,434.1435 18.84,434.3535 19.1667,434.3535 C19.4933,434.3535 19.7967,434.2369 20.0067,434.0269 C20.2167,433.8169 20.3333,433.5135 20.3333,433.1869 C20.3333,432.8602 20.2167,432.5569 20.0067,432.3469 C19.7967,432.1369 19.4933,432.0202 19.1667,432.0202 C18.84,432.0202 18.6067,432.2302 18.3267,432.3469 C18.2567,432.3819 18.14,432.3819 18,432.3819 L18,429.6869 L15.305,429.6869 C15.305,429.5469 15.3167,429.4302 15.34,429.3602 C15.4567,429.0802 15.6667,428.8469 15.6667,428.5202 C15.6667,428.1935 15.55,427.8902 15.34,427.6802 C15.13,427.4702 14.8267,427.3535 14.5,427.3535 " fill="#000000" style="stroke:;stroke-width:0.0;stroke-dasharray:;"/><text fill="#000000" font-family="sans-serif" font-size="14" font-weight="bold" lengthAdjust="spacing" textLength="66" x="26.3333" y="436.8851">Modules</text></g><!--cluster <&layers*1> Utilities--><g id="cluster_&lt;&amp;layers*1> Utilities"><path d="M577.5,568.18 L652.8333,568.18 A3.75,3.75 0 0 1 655.3333,570.68 L662.3333,590.4769 L1185.5,590.4769 A2.5,2.5 0 0 1 1188,592.9769 L1188,662.98 A2.5,2.5 0 0 1 1185.5,665.48 L577.5,665.48 A2.5,2.5 0 0 1 575,662.98 L575,570.68 A2.5,2.5 0 0 1 577.5,568.18 " fill="none" style="stroke:#000000;stroke-width:1.5;"/><line style="stroke:#000000;stroke-width:1.5;" x1="575" x2="662.3333" y1="590.4769" y2="590.4769"/><path d="M580,573.6435 L580,578.3102 L584.6667,578.3102 L584.6667,573.6435 L580,573.6435 M585.8333,575.9769 L585.8333,579.4769 L582.3333,579.4769 L582.3333,580.6435 L587,580.6435 L587,575.9769 L585.8333,575.9769 M588.1667,578.3102 L588.1667,581.8102 L584.6667,581.8102 L584.6667,582.9769 L589.3333,582.9769 L589.3333,578.3102 L588.1667,578.3102 " fill="#000000" style="stroke:;stroke-width:0.0;stroke-dasharray:;"/><text fill="#000000" font-family="sans-serif" font-size="14" font-weight="bold" lengthAdjust="spacing" textLength="58" x="595.3333" y="583.1751">Utilities</text></g><!--entity Main--><g id="elem_Main"><rect fill="#ADD8E6" height="46.2969" rx="2.5" ry="2.5" style="stroke:#181818;stroke-width:0.5;" width="85" x="239.5" y="41"/><rect fill="#ADD8E6" height="10" style="stroke:#181818;stroke-width:0.5;" width="15" x="304.5" y="46"/><rect fill="#ADD8E6" height="2" style="stroke:#181818;stroke-width:0.5;" width="4" x="302.5" y="48"/><rect fill="#ADD8E6" height="2" style="stroke:#181818;stroke-width:0.5;" width="4" x="302.5" y="52"/><text fill="#000000" font-family="sans-serif" font-size="14" lengthAdjust="spacing" textLength="45" x="254.5" y="73.9951">main.c</text></g><!--entity HTTP--><g id="elem_HTTP"><rect fill="#C9FFC9" height="46.2969" rx="2.5" ry="2.5" style="stroke:#181818;stroke-width:0.5;" width="139" x="239.5" y="164.29"/><rect fill="#C9FFC9" height="10" style="stroke:#181818;stroke-width:0.5;" width="15" x="358.5" y="169.29"/><rect fill="#C9FFC9" height="2" style="stroke:#181818;stroke-width:0.5;" width="4" x="356.5" y="171.29"/><rect fill="#C9FFC9" height="2" style="stroke:#181818;stroke-width:0.5;" width="4" x="356.5" y="175.29"/><text fill="#000000" font-family="sans-serif" font-size="14" lengthAdjust="spacing" textLength="99" x="254.5" y="197.2851">http_handler.c</text></g><!--entity URLS--><g id="elem_URLS"><rect fill="#C9FFC9" height="46.2969" rx="2.5" ry="2.5" style="stroke:#181818;stroke-width:0.5;" width="77" x="270.5" y="310.59"/><rect fill="#C9FFC9" height="10" style="stroke:#181818;stroke-width:0.5;" width="15" x="327.5" y="315.59"/><rect fill="#C9FFC9" height="2" style="stroke:#181818;stroke-width:0.5;" width="4" x="325.5" y="317.59"/><rect fill="#C9FFC9" height="2" style="stroke:#181818;stroke-width:0.5;" width="4" x="325.5" y="321.59"/><text fill="#000000" font-family="sans-serif" font-size="14" lengthAdjust="spacing" textLength="37" x="285.5" y="343.5851">urls.c</text></g><!--entity Routes--><g id="elem_Routes"><rect fill="#C9FFC9" height="46.2969" rx="2.5" ry="2.5" style="stroke:#181818;stroke-width:0.5;" width="97" x="531.5" y="310.59"/><rect fill="#C9FFC9" height="10" style="stroke:#181818;stroke-width:0.5;" width="15" x="608.5" y="315.59"/><rect fill="#C9FFC9" height="2" style="stroke:#181818;stroke-width:0.5;" width="4" x="606.5" y="317.59"/><rect fill="#C9FFC9" height="2" style="stroke:#181818;stroke-width:0.5;" width="4" x="606.5" y="321.59"/><text fill="#000000" font-family="sans-serif" font-size="14" lengthAdjust="spacing" textLength="57" x="546.5" y="343.5851">routes.c</text></g><!--entity Metrics--><g id="elem_Metrics"><rect fill="#E6E6FA" height="46.2969" rx="2.5" ry="2.5" style="stroke:#181818;stroke-width:0.5;" width="103" x="596.5" y="456.89"/><rect fill="#E6E6FA" height="10" style="stroke:#181818;stroke-width:0.5;" width="15" x="679.5" y="461.89"/><rect fill="#E6E6FA" height="2" style="stroke:#181818;stroke-width:0.5;" width="4" x="677.5" y="463.89"/><rect fill="#E6E6FA" height="2" style="stroke:#181818;stroke-width:0.5;" width="4" x="677.5" y="467.89"/><text fill="#000000" font-family="sans-serif" font-size="14" lengthAdjust="spacing" textLength="63" x="611.5" y="489.8851">metrics.c</text></g><!--entity Net--><g id="elem_Net"><rect fill="#E6E6FA" height="46.2969" rx="2.5" ry="2.5" style="stroke:#181818;stroke-width:0.5;" width="129" x="22.5" y="456.89"/><rect fill="#E6E6FA" height="10" style="stroke:#181818;stroke-width:0.5;" width="15" x="131.5" y="461.89"/><rect fill="#E6E6FA" height="2" style="stroke:#181818;stroke-width:0.5;" width="4" x="129.5" y="463.89"/><rect fill="#E6E6FA" height="2" style="stroke:#181818;stroke-width:0.5;" width="4" x="129.5" y="467.89"/><text fill="#000000" font-family="sans-serif" font-size="14" lengthAdjust="spacing" textLength="89" x="37.5" y="489.8851">networking.c</text></g><!--entity Man--><g id="elem_Man"><rect fill="#E6E6FA" height="46.2969" rx="2.5" ry="2.5" style="stroke:#181818;stroke-width:0.5;" width="82" x="473" y="456.89"/><rect fill="#E6E6FA" height="10" style="stroke:#181818;stroke-width:0.5;" width="15" x="535" y="461.89"/><rect fill="#E6E6FA" height="2" style="stroke:#181818;stroke-width:0.5;" width="4" x="533" y="463.89"/><rect fill="#E6E6FA" height="2" style="stroke:#181818;stroke-width:0.5;" width="4" x="533" y="467.89"/><text fill="#000000" font-family="sans-serif" font-size="14" lengthAdjust="spacing" textLength="42" x="488" y="489.8851">man.c</text></g><!--entity Template--><g id="elem_Template"><rect fill="#FAFAD2" height="46.2969" rx="2.5" ry="2.5" style="stroke:#181818;stroke-width:0.5;" width="168" x="746" y="603.18"/><rect fill="#FAFAD2" height="10" style="stroke:#181818;stroke-width:0.5;" width="15" x="894" y="608.18"/><rect fill="#FAFAD2" height="2" style="stroke:#181818;stroke-width:0.5;" width="4" x="892" y="610.18"/><rect fill="#FAFAD2" height="2" style="stroke:#181818;stroke-width:0.5;" width="4" x="892" y="614.18"/><text fill="#000000" font-family="sans-serif" font-size="14" lengthAdjust="spacing" textLength="128" x="761" y="636.1751">template_engine.c</text></g><!--entity Utils--><g id="elem_Utils"><rect fill="#FAFAD2" height="46.2969" rx="2.5" ry="2.5" style="stroke:#181818;stroke-width:0.5;" width="115" x="590.5" y="603.18"/><rect fill="#FAFAD2" height="10" style="stroke:#181818;stroke-width:0.5;" width="15" x="685.5" y="608.18"/><rect fill="#FAFAD2" height="2" style="stroke:#181818;stroke-width:0.5;" width="4" x="683.5" y="610.18"/><rect fill="#FAFAD2" height="2" style="stroke:#181818;stroke-width:0.5;" width="4" x="683.5" y="614.18"/><text fill="#000000" font-family="sans-serif" font-size="14" lengthAdjust="spacing" textLength="75" x="605.5" y="636.1751">http_utils.c</text></g><!--link Main to Main--><g id="link_Main_Main"><path d="M324.96,52.93 C346.39,51.37 365.5,55.11 365.5,64.14 C365.5,73.17 352.3744,77.3428 330.9444,75.7928 " fill="none" id="Main-to-Main" style="stroke:#181818;stroke-width:1.0;"/><polygon fill="#181818" points="324.96,75.36,333.648,79.9988,329.947,75.7207,334.2251,72.0197,324.96,75.36" style="stroke:#181818;stroke-width:1.0;"/><text fill="#000000" font-family="sans-serif" font-size="13" lengthAdjust="spacing" textLength="126" x="371.5" y="68.7069">kevent() (kqueue.h)</text></g><!--link Main to HTTP--><g id="link_Main_HTTP"><path d="M287.02,87.67 C291.86,109.46 297.8667,136.4233 302.7067,158.1733 " fill="none" id="Main-to-HTTP" style="stroke:#181818;stroke-width:1.0;"/><polygon fill="#181818" points="304.01,164.03,305.9596,154.376,302.9239,159.1494,298.1506,156.1137,304.01,164.03" style="stroke:#181818;stroke-width:1.0;"/><text fill="#000000" font-family="sans-serif" font-size="13" lengthAdjust="spacing" textLength="213" x="299" y="130.3569">queue_push() -> worker_thread()</text></g><!--link HTTP to URLS--><g id="link_HTTP_URLS"><path d="M309,210.99 C309,238.1 309,277.31 309,304.35 " fill="none" id="HTTP-to-URLS" style="stroke:#181818;stroke-width:1.0;"/><polygon fill="#181818" points="309,310.35,313,301.35,309,305.35,305,301.35,309,310.35" style="stroke:#181818;stroke-width:1.0;"/><text fill="#000000" font-family="sans-serif" font-size="13" lengthAdjust="spacing" textLength="141" x="310" y="255.6569">route_match() (urls.h)</text></g><!--link URLS to Routes--><g id="link_URLS_Routes"><path d="M347.83,333.74 C396.12,333.74 472.61,333.74 525.15,333.74 " fill="none" id="URLS-to-Routes" style="stroke:#181818;stroke-width:1.0;"/><polygon fill="#181818" points="531.15,333.74,522.15,329.74,526.15,333.74,522.15,337.74,531.15,333.74" style="stroke:#181818;stroke-width:1.0;"/><text fill="#000000" font-family="sans-serif" font-size="13" lengthAdjust="spacing" textLength="142" x="368.5" y="326.8069">dispatching to handler</text></g><!--link Routes to Template--><g id="link_Routes_Template"><path d="M628.94,336.46 C733.97,343.22 978.48,376.11 1065,535.18 C1098.98,597.66 1000.7639,616.691 920.3339,622.591 " fill="none" id="Routes-to-Template" style="stroke:#181818;stroke-width:1.0;"/><polygon fill="#181818" points="914.35,623.03,923.6185,626.3608,919.3366,622.6642,923.0332,618.3823,914.35,623.03" style="stroke:#181818;stroke-width:1.0;"/><text fill="#000000" font-family="sans-serif" font-size="13" lengthAdjust="spacing" textLength="317" x="1058" y="484.5969">render_template_response() (template_engine.h)</text></g><!--link Routes to Metrics--><g id="link_Routes_Metrics"><path d="M609.03,357.36 C618.45,366.19 628,377.04 634,388.89 C644.81,410.22 647.5569,431.7528 648.1369,450.7528 " fill="none" id="Routes-to-Metrics" style="stroke:#181818;stroke-width:1.0;"/><polygon fill="#181818" points="648.32,456.75,652.0435,447.6321,648.1674,451.7523,644.0473,447.8762,648.32,456.75" style="stroke:#181818;stroke-width:1.0;"/><text fill="#000000" font-family="sans-serif" font-size="13" lengthAdjust="spacing" textLength="187" x="641" y="401.9569">metrics_handler() (metrics.h)</text></g><!--link Routes to Net--><g id="link_Routes_Net"><path d="M531.13,347.65 C488.4,358.39 424.54,373.13 368,380.89 C337.79,385.03 260.05,379.62 231,388.89 C186.04,403.23 145.7356,431.1374 118.3056,452.8374 " fill="none" id="Routes-to-Net" style="stroke:#181818;stroke-width:1.0;"/><polygon fill="#181818" points="113.6,456.56,123.1401,454.1132,117.5213,453.4578,118.1766,447.8391,113.6,456.56" style="stroke:#181818;stroke-width:1.0;"/><text fill="#000000" font-family="sans-serif" font-size="13" lengthAdjust="spacing" textLength="229" x="232" y="401.9569">networking_handler() (networking.h)</text></g><!--link Routes to Man--><g id="link_Routes_Man"><path d="M531.08,348.04 C510.64,356.28 488.91,369.17 477,388.89 C463.88,410.61 475.1576,433.0829 489.7876,451.9029 " fill="none" id="Routes-to-Man" style="stroke:#181818;stroke-width:1.0;"/><polygon fill="#181818" points="493.47,456.64,491.1044,447.0795,490.4013,452.6924,484.7883,451.9894,493.47,456.64" style="stroke:#181818;stroke-width:1.0;"/><text fill="#000000" font-family="sans-serif" font-size="13" lengthAdjust="spacing" textLength="149" x="478" y="401.9569">man_handler() (man.h)</text></g><!--link Metrics to Utils--><g id="link_Metrics_Utils"><path d="M645.44,503.66 C644.47,513.35 643.48,524.81 643,535.18 C641.94,558.2 643.1832,578.5368 644.9132,596.7668 " fill="none" id="Metrics-to-Utils" style="stroke:#181818;stroke-width:1.0;"/><polygon fill="#181818" points="645.48,602.74,648.6118,593.4024,645.0076,597.7624,640.6476,594.1582,645.48,602.74" style="stroke:#181818;stroke-width:1.0;"/><text fill="#000000" font-family="sans-serif" font-size="13" lengthAdjust="spacing" textLength="414" x="644" y="548.2469">get_system_metrics_json() -> json_escape_string() (http_utils.h)</text></g><!--link Man to Utils--><g id="link_Man_Utils"><path d="M490.67,503.67 C479.81,512.73 466.17,522.19 452,527.18 C429.66,535.05 255.43,518.13 239,535.18 C233.76,540.63 234.15,546.39 239,552.18 C283.1,604.87 482.0549,619.4084 584.0449,623.5184 " fill="none" id="Man-to-Utils" style="stroke:#181818;stroke-width:1.0;"/><polygon fill="#181818" points="590.04,623.76,581.2084,619.4009,585.0441,623.5587,580.8862,627.3944,590.04,623.76" style="stroke:#181818;stroke-width:1.0;"/><text fill="#000000" font-family="sans-serif" font-size="13" lengthAdjust="spacing" textLength="391" x="240" y="548.2469">man_render_page() -> safe_popen_read_argv() (http_utils.h)</text></g><!--link Net to Net--><g id="link_Net_Net"><path d="M151.9,468.1 C174.36,467.98 192.5,471.95 192.5,480.03 C192.5,488.12 180.3599,492.1221 157.8999,492.0021 " fill="none" id="Net-to-Net" style="stroke:#181818;stroke-width:1.0;"/><polygon fill="#181818" points="151.9,491.97,160.8785,496.018,156.8999,491.9967,160.9212,488.0181,151.9,491.97" style="stroke:#181818;stroke-width:1.0;"/><text fill="#000000" font-family="sans-serif" font-size="13" lengthAdjust="spacing" textLength="250" x="198.5" y="484.5969">networking_get_routes() (networking.h)</text></g><!--link Template to Template--><g id="link_Template_Template"><path d="M914.42,618.64 C937.44,619.02 955,621.59 955,626.33 C955,631.07 943.4391,633.5384 920.4191,633.9284 " fill="none" id="Template-to-Template" style="stroke:#181818;stroke-width:1.0;"/><polygon fill="#181818" points="914.42,634.03,923.4865,637.877,919.4193,633.9453,923.351,629.8781,914.42,634.03" style="stroke:#181818;stroke-width:1.0;"/><text fill="#000000" font-family="sans-serif" font-size="13" lengthAdjust="spacing" textLength="120" x="961" y="630.8969">read_file_content()</text></g><!--link Template to Template--><g id="link_Template_Template"><path d="M914.46,612.99 C991.95,607.7 1087,612.15 1087,626.33 C1087,640.52 997.9361,645.3687 920.4461,640.0787 " fill="none" id="Template-to-Template-1" style="stroke:#181818;stroke-width:1.0;"/><polygon fill="#181818" points="914.46,639.67,923.1667,644.2737,919.4484,640.0105,923.7115,636.2923,914.46,639.67" style="stroke:#181818;stroke-width:1.0;"/><text fill="#000000" font-family="sans-serif" font-size="13" lengthAdjust="spacing" textLength="78" x="1093" y="630.8969">replace_all()</text></g><!--SRC=[VLFHQjim57ttLrnQw9912dir8x2Lhdb8sfAb3wKC8UmRMuiiQPBSq8xz-wvasOdJTM-Ixxdt7frpx7P26Mvv0pLNvTuAxr71bak7cHjgZLQwgArkC9KomuiThn3EFbzmWzQt5Zz-ciELjWWNS8j-h-tk37vd04yD5-go-07SmOgESBuKLUs_oXP3jVRUiB1SeasenMPp3-URwwl5xTtoxkOn-pDQkANHOTbQjrweAcrfhNIf_s6z_3xgfx8bCFQ0TRpyPuLfNrybpep08hvhfSjMekiVXDwAeX-swcxqBFwCgaGR8AfJWEWb54aoHZJy88ewAes9IFw2rWKA3rv8uSL0mcDZ9FV8K5L2OPgrIL-Jo3TQbgZMkdn4AVL-q9k4EwWLpk_WYSm7-2PRvpJSMw4AORZ4BDeuctTsvh13ukudKvZiVhNOucKzJP1IxnNXeg4vn28phQi9Iv-3GcYPhotoSZBD8gplYIRc47rZ3VT5Q9f4bsbyhCxclPCvbCAP02B5mMj8WGhq5ztH4OJWtlCiDVMR1ireM_I03TfQT4OhXs7rgU34ucHGduGSKaBwN8VsFZH7RVEOYXmEOJbkE8hGg2V4XJPmDPfEQI8KFVUBCLPljIf5GwReBheYwxaDyaRNSwZGC_VYw76i9_tJQTKP54uCNK6_E7DKL5NOTPIWQ7ICGZyly4eg6ifmDyVnBVck3OOQBnctrVFRIK6CVsaIA7Q_xrjPwC63VTVHbsoudrfBYxT28YkqyZ6lxqFfL23ZKawcVm40]--></g><text x="98%" y="98%" text-anchor="end" font-size="5vh" fill="#cccccc" opacity="0.5" transform="translate(-10,-10)" font-family="Roboto, Arial, Helvetica, sans-serif">pladitor.com</text></svg>